<?xml version="1.0" standalone="yes"?>
<svg xmlns="http://www.w3.org/2000/svg" width="1600" height="1200">
<path style="fill:#fcfdfe; stroke:none;" d="M0 0L0 1200L1600 1200L1600 0L0 0z"/>
<path style="fill:#f49f99; stroke:none;" d="M406.667 232.333L407.333 232.667L406.667 232.333M397.667 233.333L398.333 233.667L397.667 233.333z"/>
<path style="fill:#29325b; stroke:none;" d="M364 296L365 296C365.63 293.884 366.224 291.939 367.653 290.184C381.672 272.966 392.931 312.071 377.985 311.239C374.921 311.069 371.851 309.02 369 308C372.705 327.107 378.568 348.679 398 357.482C403.304 359.885 407.67 358.658 413 359.664C421.346 361.24 432.979 365.429 439.436 356.892C446.688 347.303 444 326.396 444 315C436.088 313.531 427.629 313.182 420 316.066C415.03 317.944 407.542 323.794 402.015 321.637C394.843 318.837 393.148 307.53 391.651 301C389.198 290.293 386.594 275.667 393.51 266.001C400.861 255.726 423.81 249.394 434.581 258.6C439.624 262.91 441.158 274.75 442 281L432 282L433 286L446 285L443 282C445.846 270.044 442.448 247.886 432.816 239.532C417.55 226.292 384.423 232.686 371.468 246.301C360.693 257.624 360.577 281.624 364 296z"/>
<path style="fill:#f49f99; stroke:none;" d="M415 233L415 234L418 234L415 233M393 234L394 235L393 234M421 234L422 235L421 234M390 235L391 236L390 235M425 235L426 236L425 235M385 237L386 238L385 237M430 237L431 238L430 237M383 238L384 239L383 238M431 238L432 239L431 238M381 239L382 240L381 239M379 240L380 241L379 240M377 241L378 242L377 241M435 242L436 243L435 242M374 243L375 244L374 243M436 243L437 244L436 243M373 244L374 245L373 244M437 245L438 246L437 245M370 247L371 248L370 247M369 248L370 249L369 248M439 249L440 250L439 249M367 251L368 252L367 251M366 253L367 254L366 253M440 253L441 254L440 253z"/>
<path style="fill:#e2a715; stroke:none;" d="M444 315L443 285L433 286L432 282L442 281C441.497 274.84 439.947 263.085 435.298 258.6C425.95 249.58 401.515 255.215 394.278 264.015C386.514 273.456 388.894 289.039 391.211 300C392.626 306.694 394.289 319.765 402.015 322.164C408.249 324.1 416.365 317.684 422 315.699C429.254 313.144 436.553 314.059 444 315z"/>
<path style="fill:#f49f99; stroke:none;" d="M439 255L440 256L439 255M365 256L366 257L365 256M364 259L365 260L364 259M441 259L442 260L441 259M442 261L443 262L442 261M363.333 262.667L363.667 263.333L363.333 262.667M443.333 264.667L443.667 265.333L443.333 264.667M362 269L362 287L363 287L362 269M444 271L444 274L445 274L444 271M443.333 280.667L443.667 281.333L443.333 280.667z"/>
<path style="fill:#29325b; stroke:none;" d="M408 288C412.277 288.705 425.639 286.059 427 282C419.77 281.087 411.873 280.55 408 288z"/>
<path style="fill:#f49f99; stroke:none;" d="M446.333 283.667L446.667 284.333L446.333 283.667M443 285L443 288L444 288L443 285z"/>
<path style="fill:#e2a715; stroke:none;" d="M371.043 286.859C357.162 292.745 368.07 316.244 380.786 311.218C390.906 307.217 384.295 281.24 371.043 286.859z"/>
<path style="fill:#29325b; stroke:none;" d="M374 303L375 290C365.921 291.035 366.214 299.818 374 303z"/>
<path style="fill:#f49f99; stroke:none;" d="M444 292L444 315L445 315L444 292M363 294L363 297L364 297L363 294M364 301L365 302L364 301M365 303L366 304L365 303M367 306L368 307L367 306M368 307L369 308L368 307M369 310L370 311L369 310M370 315L371 316L370 315M444 316L444 320L445 320L444 316M371 319L372 320L371 319z"/>
<path style="fill:#e2a715; stroke:none;" d="M372 324L372 351C372 354.423 371.08 359.587 373.028 362.606C379.848 373.18 407.297 370.535 411 359C388.648 363.845 381.733 337.008 372 324z"/>
<path style="fill:#f49f99; stroke:none;" d="M418 327L419 328L418 327z"/>
<path style="fill:#fcfdfe; stroke:none;" d="M419 327C421.205 337.895 433.814 338.629 437 328L419 327z"/>
<path style="fill:#f49f99; stroke:none;" d="M421 327L421 328L437 328L421 327M419 330L420 331L419 330M436 330L437 331L436 330M420 332L421 333L420 332M435 332L436 333L435 332M421 333L422 334L421 333M422 334L423 335L422 334M424 335L425 336L424 335M432 335L433 336L432 335M443 335L443 341L444 341L443 335M427 336L427 337L430 337L427 336M966 338L967 339L966 338M964 339L965 340L964 339z"/>
<path style="fill:#29325b; stroke:none;" d="M962 409C963.487 426.024 981.623 426.615 982 409L1004 411C1009.63 403.24 1016.37 403.24 1022 411L1023 411C1027.84 393.798 1036.32 356.036 1015 346.529C999.68 339.697 980.921 345.956 965 346L967 339C957.218 342.097 942.558 351.832 941.419 363C940.87 368.381 944.699 371.723 945.643 376.576C946.6 381.496 944.274 389.75 943.956 395C943.47 403.021 933.99 417.287 946.093 422.257C956.407 426.492 957.436 414.223 962 409z"/>
<path style="fill:#f49f99; stroke:none;" d="M966 340L967 341L966 340M961 341L962 342L961 341M959 342L960 343L959 342M965 343L965 346L966 346L965 343M987 343L987 344L1004 344L987 343M956 344L957 345L956 344M978 344L978 345L981 345L978 344M1008.67 344.333L1009.33 344.667L1008.67 344.333M473 345L473 346L477 346L470 394C475.417 392.268 485.246 387.795 490.891 389.693C499.176 392.478 493.925 407.472 489.671 411.471C483.838 416.952 469.202 418.025 466.863 426.044C465.549 430.549 463.306 440.766 466.603 444.682C469.541 448.171 475.965 447 480 447C491.405 447 509.301 450.322 519.852 445.411C525.285 442.883 524.468 429.187 525.05 424C527.108 405.67 529.029 387.306 531.285 369C531.929 363.773 535.527 352.172 531.972 347.6C529.112 343.92 520.08 345 516 345L473 345M955 345L956 346L955 345M970 345L970 346L974 346L970 345M1012 345L1013 346L1012 345M471 346L470 348L471 346z"/>
<path style="fill:#29325b; stroke:none;" d="M465 395C471.497 393.595 471.02 387.646 471.715 382C473.131 370.509 472.458 356.719 477 346C469.462 346.575 469.667 352.626 469.075 359C467.958 371.016 466.513 383.03 465 395z"/>
<path style="fill:#f49f99; stroke:none;" d="M1015 346L1016 347L1015 346M442.333 347.667L442.667 348.333L442.333 347.667M952 347L953 348L952 347z"/>
<path style="fill:#18c8b0; stroke:none;" d="M475 348L476 349L475 348z"/>
<path style="fill:#f49f99; stroke:none;" d="M1018 348L1019 349L1018 348M441.333 352.667L441.667 353.333L441.333 352.667M1023 353L1024 354L1023 353M469.333 354.667L469.667 355.333L469.333 354.667M943 356L944 357L943 356M439 357L440 358L439 357z"/>
<path style="fill:#18c8b0; stroke:none;" d="M474.333 357.667L474.667 358.333L474.333 357.667z"/>
<path style="fill:#f49f99; stroke:none;" d="M1025 357L1026 358L1025 357M412 358L413 359L412 358M438 358L439 359L438 358M942 358L943 359L942 358M413 359L414 360L413 359M410 360L413 363L413 362L410 360M415 360L416 361L415 360M435 360L436 361L435 360M941.333 360.667L941.667 361.333L941.333 360.667M1026 360L1027 361L1026 360M417 361L418 362L417 361M432 361L433 362L432 361M371 362L373 364L371 362M420 362L420 363L429 363L420 362M468 362L468 365L469 365L468 362M368 363L369 364L368 363z"/>
<path style="fill:#29325b; stroke:none;" d="M330 637L461 637L453 510C472.699 517.377 498.288 514 519 514L519 515C510.617 519.56 511 527.526 511 536L511 583C517.126 581.946 517.967 575.099 520 570C525.946 555.088 518.367 534.168 526.228 521.015C532.777 510.057 552.538 517.648 556.566 503.946C560.668 489.995 546.553 490.989 537 489.845C513.379 487.017 489.711 482.871 466 481L455.477 437L460 427L461 427C460.94 434.279 456.658 445.211 467 446C463.876 438.626 466.025 430.715 467 423L461 424C458.503 414.964 450.547 412.355 446.649 404.871C441.87 395.697 442.957 384.03 437.772 375.015C432.774 366.322 419.319 363.193 410 363L410 422C410 429.258 412.082 438.934 406 444C403.231 423.439 393.168 402.274 383.742 384C380.89 378.473 377.469 368.443 372.471 364.643C368.534 361.649 360.151 365.734 356 367.026C339.185 372.256 324.64 379.273 320.669 398C315.888 420.543 326.976 444.509 327.961 467C330.442 523.664 330 580.503 330 637z"/>
<path style="fill:#f49f99; stroke:none;" d="M416.667 363.333L417.333 363.667L416.667 363.333M364 364L365 365L364 364z"/>
<path style="fill:#fcfdfe; stroke:none;" d="M373 364C384.172 389.926 402.132 414.3 406 443C412.27 439.543 410 429.263 410 423L410 364C397.032 370.786 386.155 369.396 373 364z"/>
<path style="fill:#f49f99; stroke:none;" d="M374 364L375 365L374 364M420 364L421 365L420 364M1027.33 364.667L1027.67 365.333L1027.33 364.667M360.667 365.333L361.333 365.667L360.667 365.333M373 365L374 366L373 365M376 365L377 366L376 365M407 365L408 366L407 365M423.667 365.333L424.333 365.667L423.667 365.333z"/>
<path style="fill:#18c8b0; stroke:none;" d="M473.333 365.667L473.667 366.333L473.333 365.667z"/>
<path style="fill:#f49f99; stroke:none;" d="M357 366L358 367L357 366M378.667 366.333L379.333 366.667L378.667 366.333M405 366L406 367L405 366M426 366L427 367L426 366M617 366L617 367L620 367L617 366z"/>
<path style="fill:#29325b; stroke:none;" d="M613 492L614 461C601.959 465.379 603.761 457.82 600.208 450C598.624 446.514 595.458 444.264 596.453 440.004C597.934 433.662 604.517 432.188 608.566 437.11C612.121 441.43 609.933 447.017 614 451L615 437L624 437C626.383 452.83 646.089 453.855 647 437L651 437C652.569 454.288 672.553 452.451 674 436L615 435L616 415C632.668 418.979 650.086 416 667 416C666.963 402.438 663.609 387.091 653.907 377.04C638.22 360.789 607.919 363.518 592.04 378.184C574.014 394.834 577.385 433.719 578.911 456C579.343 462.308 576.311 475.197 580.028 480.49C584.363 486.664 605.714 491.364 613 492z"/>
<path style="fill:#f49f99; stroke:none;" d="M631 366L631 367L634 367L631 366M941.333 366.667L941.667 367.333L941.333 366.667M354 367L355 368L354 367M381.667 367.333L382.333 367.667L381.667 367.333M402.667 367.333L403.333 367.667L402.667 367.333M612.667 367.333L613.333 367.667L612.667 367.333M637 367L638 368L637 367M351 368L352 369L351 368M385 368L385 369L390 369L385 368M394 368L394 369L399 369L394 368M609 368L610 369L609 368M640 368L641 369L640 368M348 369L349 370L348 369M432 369L433 370L432 369M606 369L607 370L606 369M643 369L644 370L643 369M346 370L347 371L346 370M376 370L377 371L376 370M604 370L605 371L604 370M645 370L646 371L645 370M942 370L943 371L942 370M343 371L344 372L343 371M435 371L436 372L435 371M467 371L467 374L468 374L467 371M341 372L342 373L341 372M377 372L378 373L377 372M436 372L437 373L436 372M648 372L649 373L648 372M943 372L944 373L943 372M1028 372L1028 381L1029 381L1028 372M338 373L339 374L338 373z"/>
<path style="fill:#fcfdfe; stroke:none;" d="M500.062 373.971C493.117 375.618 493.288 393.071 500.975 391.248C508.087 389.562 507.565 372.191 500.062 373.971z"/>
<path style="fill:#f49f99; stroke:none;" d="M598 373L599 374L598 373M944 373L945 374L944 373M336 374L337 375L336 374M378 374L379 375L378 374z"/>
<path style="fill:#18c8b0; stroke:none;" d="M472 374L473 375L472 374z"/>
<path style="fill:#f49f99; stroke:none;" d="M438.333 375.667L438.667 376.333L438.333 375.667M595 375L596 376L595 375M652 375L653 376L652 375M945 399L954.787 400.433L961 406.364L972.001 398.377L983.259 406.397L1000 407C998.968 398.833 1003.16 384.473 996.772 378.279C987.357 369.148 973.242 379.576 963 380.471C959.392 380.787 953.697 378.005 950.702 380.643C946.528 384.319 946 393.843 945 399M333 376L334 377L333 376M379 376L380 377L379 376M653 376L654 377L653 376M946 376L947 377L946 376M654 377L655 378L654 377M380 378L381 379L380 378M439 378L440 379L439 378M330 379L331 380L330 379M945 379L946 380L945 379M329 380L330 381L329 380M466 380L466 383L467 383L466 380M328 381L329 382L328 381M657 381L658 382L657 381M327 382L328 383L327 382M440 382L441 383L440 382M944.333 382.667L944.667 383.333L944.333 382.667z"/>
<path style="fill:#18c8b0; stroke:none;" d="M471.333 383.667L471.667 384.333L471.333 383.667z"/>
<path style="fill:#f49f99; stroke:none;" d="M587 383L588 384L587 383M586 384L587 385L586 384M659 384L660 385L659 384M325 385L326 386L325 385M464 385L465 386L464 385z"/>
<path style="fill:#e2a715; stroke:none;" d="M465 385C454.607 391.391 452.693 397.442 448 408C453.958 412.197 458.308 417.218 461 424C470.623 422.698 488.299 417.265 492.95 407.96C495.016 403.826 497.454 392.009 491.772 389.618C484.338 386.49 471.54 393.886 464 395L465 385z"/>
<path style="fill:#f49f99; stroke:none;" d="M441 386L442 387L441 386M462 386L463 387L462 386M585 386L586 387L585 386M660 386L661 387L660 386M460 387L461 388L460 387M1027 387L1027 391L1028 391L1027 387M459 388L460 389L459 388M661 388L662 389L661 388M943 388L943 398L944 398L943 388M442.333 389.667L442.667 390.333L442.333 389.667M456 390L457 391L456 390M583 390L584 391L583 390M662 390L663 391L662 390M322 391L323 392L322 391M455 391L456 392L455 391z"/>
<path style="fill:#18c8b0; stroke:none;" d="M470.333 391.667L470.667 392.333L470.333 391.667z"/>
<path style="fill:#f49f99; stroke:none;" d="M454 392L455 393L454 392M321.333 393.667L321.667 394.333L321.333 393.667M443.333 393.667L443.667 394.333L443.333 393.667M582 393L583 394L582 393M663 393L664 394L663 393M388 394L389 395L388 394z"/>
<path style="fill:#fcfdfe; stroke:none;" d="M464 394L465 395L464 394z"/>
<path style="fill:#f49f99; stroke:none;" d="M452 395L453 396L452 395M1026.33 395.667L1026.67 396.333L1026.33 395.667M389 396L390 397L389 396M664 396L665 397L664 396M320.333 397.667L320.667 398.333L320.333 397.667M444.333 397.667L444.667 398.333L444.333 397.667M451 397L452 398L451 397M581.333 397.667L581.667 398.333L581.333 397.667M390 398L391 399L390 398M949.018 399.917C940.958 400.609 940.064 421.917 949.997 421.222C960.674 420.476 959.994 398.973 949.018 399.917M972 399.917C960.909 400.835 961.891 422.687 973 421.214C982.988 419.889 982.57 399.042 972 399.917M391 400L392 401L391 400M450.333 400.667L450.667 401.333L450.333 400.667M665.333 400.667L665.667 401.333L665.333 400.667M1025.33 400.667L1025.67 401.333L1025.33 400.667M445 401L446 402L445 401M942 401L943 402L942 401M392 402L393 403L392 402M580 402L580 405L581 405L580 402z"/>
<path style="fill:#fcfdfe; stroke:none;" d="M943 403L942 407L943 403z"/>
<path style="fill:#f49f99; stroke:none;" d="M446.333 404.667L446.667 405.333L446.333 404.667M449.333 404.667L449.667 405.333L449.333 404.667M1004 411L982 409C981.197 426.317 964.392 425.184 962 409C954.173 414.931 956.635 425.96 943 421L943 437L944 437C947.192 429.923 965.023 428.881 971.985 432.457C975.991 434.515 977.268 439.715 981.213 441.396C990.995 445.563 998.955 429.086 1001 422C1005.75 435.552 1023.5 431.145 1023.52 417C1023.54 405.283 1009.56 399.43 1004 411M319 405L319 411L320 411L319 405M393 405L394 406L393 405M666 405L666 408L667 408L666 405M940 405L941 406L940 405M1024.33 405.667L1024.67 406.333L1024.33 405.667M394 407L395 408L394 407M447 407L448 408L447 407M939 408L939 413L940 413L939 408M395 409L396 410L395 409M579 409L579 414L580 414L579 409M941 409L941 414L942 414L941 409z"/>
<path style="fill:#fcfdfe; stroke:none;" d="M942 409L942 416L943 416L944 409L942 409z"/>
<path style="fill:#f49f99; stroke:none;" d="M1023.33 409.667L1023.67 410.333L1023.33 409.667M396 412L397 413L396 412M397 414L398 415L397 414M616 415L615 435L665 435L664 416L616 415M667 415L668 416L667 415M398 417L399 418L398 417M320 418L320 421L321 421L320 418M941 418L942 419L941 418M942 419L943 420L942 419M1178 419L1178 420L1181 420L1178 419z"/>
<path style="fill:#29325b; stroke:none;" d="M1215 458L1215 523C1180.9 523.004 1164.9 552.381 1153.81 581C1149.62 591.809 1143.6 606.773 1149 618L1168 609.44L1186 605.722L1215 587L1215 623L1216 623C1216 612.61 1213.67 599.085 1216.32 589.043C1217.13 585.961 1220.33 584.697 1221.23 581.791C1222.42 577.956 1221.23 573.127 1222.24 569C1224.96 557.847 1232.92 551.176 1242 545L1233.6 529L1233 504L1232 504L1232 529C1228.04 526.701 1219.48 525.488 1217.03 521.697C1214.57 517.898 1216 510.347 1216 506C1216 492.262 1212.9 474.304 1216.32 461.015C1217.35 457.008 1221.19 455.075 1223.57 451.961C1228.01 446.139 1226.89 438.022 1223.47 432C1214.52 416.255 1192.5 417.852 1177 420C1171.59 420.75 1161.88 421.565 1159.05 427.108C1155.77 433.523 1165.74 438.412 1170 440.85C1183.63 448.645 1198.75 459.919 1215 458z"/>
<path style="fill:#f49f99; stroke:none;" d="M1202 419L1202 420L1205 420L1202 419M399 420L400 421L399 420M1172.67 420.333L1173.33 420.667L1172.67 420.333M1208.67 420.333L1209.33 420.667L1208.67 420.333M1168 421L1169 422L1168 421M1212 421L1213 422L1212 421M400.333 422.667L400.667 423.333L400.333 422.667M578 422L578 437L579 437L578 422z"/>
<path style="fill:#29325b; stroke:none;" d="M1001 422C998.459 428.071 990.875 444.54 982.105 441.377C978.009 439.9 976.864 434.529 972.957 432.457C967.704 429.671 946.639 429.009 944.654 435.044C939.232 451.52 958.06 471.347 974 469.829C998.12 467.532 1013.6 450.671 1018 428C1008.71 431.785 1005.43 430.91 1001 422z"/>
<path style="fill:#f49f99; stroke:none;" d="M1165 422L1166 423L1165 422M1214 422L1215 423L1214 422M1162 423L1163 424L1162 423M321.333 425.667L321.667 426.333L321.333 425.667M401.333 425.667L401.667 426.333L401.333 425.667M1159 425L1160 426L1159 425M1218 425L1219 426L1218 425z"/>
<path style="fill:#18c8b0; stroke:none;" d="M466.333 426.667L466.667 427.333L466.333 426.667z"/>
<path style="fill:#f49f99; stroke:none;" d="M1158 426L1159 427L1158 426M1219 426L1220 427L1219 426M460 427L461 428L460 427M1157.33 428.667L1157.67 429.333L1157.33 428.667M402 429L403 430L402 429M458 430L459 431L458 430M1017 430L1017 433L1018 433L1017 430M1222 430L1223 431L1222 430M322.333 431.667L322.667 432.333L322.333 431.667M403 432L404 433L403 432M460 432L460 435L461 435L460 432M456 433L457 434L456 433M612 450C610.942 445.554 611.774 439.831 608.566 436.228C600.701 427.392 591.036 442.131 599.148 448.627C602.577 451.373 607.794 448.445 612 450M1159 433L1160 434L1159 433M1224 433L1225 434L1224 433M455 434L456 435L455 434M1160 434L1161 435L1160 434M404.333 435.667L404.667 436.333L404.333 435.667z"/>
<path style="fill:#18c8b0; stroke:none;" d="M465 435L466 436L465 435z"/>
<path style="fill:#f49f99; stroke:none;" d="M665 435L665 436L674 436L665 435M1016.33 435.667L1016.67 436.333L1016.33 435.667M1225.33 435.667L1225.67 436.333L1225.33 435.667M323.333 436.667L323.667 437.333L323.333 436.667M615 437C615 445.096 615.914 454.849 612 462C615.388 462 613.925 466.339 613.667 469C612.935 476.524 613 484.305 613 492L594 487C594 489.958 593.357 493.995 595.028 496.61C599.512 503.626 617.747 504.28 623.721 499.297C628.31 495.47 628.884 485.57 629 480C650.501 482.717 663.527 472.78 664 450C656.747 449.192 652.125 444.084 651 437L647 437C645.184 453.722 627.563 451.821 624 437L615 437M626 437C627.553 452.066 642.356 449.444 646 437L626 437M653 437C653.416 444.604 657.61 447.821 665 448L665 437L653 437z"/>
<path style="fill:#fcfdfe; stroke:none;" d="M665 437L665 448C669.333 445.247 671.212 442.048 672 437L665 437z"/>
<path style="fill:#f49f99; stroke:none;" d="M1164 437L1165 438L1164 437M455.333 438.667L455.667 439.333L455.333 438.667M1015 438L1015 441L1016 441L1015 438M405.333 439.667L405.667 440.333L405.333 439.667M1167 439L1168 440L1167 439M1226.33 439.667L1226.67 440.333L1226.33 439.667M671 440L672 441L671 440M673 440L674 441L673 440M1169 440L1170 441L1169 440M324.333 441.667L324.667 442.333L324.333 441.667M409 441L410 442L409 441M459.333 441.667L459.667 442.333L459.333 441.667M1171 441L1172 442L1171 441M408 442L409 443L408 442M456.333 442.667L456.667 443.333L456.333 442.667M944 442L945 443L944 442M954 442L954 443L975 443L969 451L976 442L954 442M1014 442C1007.87 458.501 989.734 465.919 974 470C975.38 474.908 975.663 481.825 979.419 485.581C988.339 494.501 1006.82 489.341 1016 484L1014 442M406.667 443.333L407.333 443.667L406.667 443.333M672 443L673 444L672 443z"/>
<path style="fill:#fcfdfe; stroke:none;" d="M954 443C958.81 453.903 969.868 453.968 975 443L954 443z"/>
<path style="fill:#f49f99; stroke:none;" d="M460 444L461 445L460 444M669 444L670 445L669 444M945 444L945 447L946 447L945 444M954 444L955 445L954 444M1226 444L1226 447L1227 447L1226 444M325.333 445.667L325.667 446.333L325.333 445.667M461 445L462 446L461 445M457 446L458 447L457 446M667 446L668 447L667 446M670 446L671 447L670 446M955 446L956 447L955 446M669 447L670 448L669 447M1182 447L1183 448L1182 447z"/>
<path style="fill:#fcfdfe; stroke:none;" d="M606.019 448.797C597.662 451.482 601.149 465.485 609.981 462.242C618.156 459.241 614.269 446.147 606.019 448.797z"/>
<path style="fill:#f49f99; stroke:none;" d="M946.333 448.667L946.667 449.333L946.333 448.667M956 448L957 449L956 448M1184 448L1185 449L1184 448M326.333 449.667L326.667 450.333L326.333 449.667M666 449L667 450L666 449M957 449L958 450L957 449M1186 449L1187 450L1186 449M1225 449L1226 450L1225 449M458 450L459 451L458 450M958 450L959 451L958 450M1188 450L1189 451L1188 450M947.333 451.667L947.667 452.333L947.333 451.667M960 451L961 452L960 451M966.667 451.333L967.333 451.667L966.667 451.333M1190 451L1191 452L1190 451M578 452L578 470L579 470L578 452M1223 452L1224 453L1223 452M459.333 453.667L459.667 454.333L459.333 453.667M1193 453L1194 454L1193 453M1222 453L1223 454L1222 453M600 454L600 458L601 458L600 454M948 454L949 455L948 454M1221 454L1222 455L1221 454M1220 455L1221 456L1220 455M949 456L950 457L949 456M1218 456L1219 457L1218 456M460.333 457.667L460.667 458.333L460.333 457.667M1201 457L1202 458L1201 457M950 458L951 459L950 458M1205 458L1205 459L1208 459L1205 458M1211 458L1211 459L1214 459L1211 458M1216 458L1216 523L1217 523L1217 479L1216 458M601 459L602 460L601 459M951 459L952 460L951 459M461 461L462 462L461 461M952 461L953 462L952 461z"/>
<path style="fill:#18c8b0; stroke:none;" d="M1261 461.428C1248.74 462.912 1236.83 469.104 1231.53 481C1223.04 500.064 1239.04 518.063 1259 515.707C1276.91 513.592 1296.93 505.582 1314 499.656C1319.4 497.78 1328.26 495.326 1329.92 488.985C1331.97 481.186 1321.44 476.435 1316 473.756C1300.69 466.211 1278.24 459.341 1261 461.428z"/>
<path style="fill:#f49f99; stroke:none;" d="M327 462L327 482L328 482L327 462M604 462L605 463L604 462M610 462L611 463L610 462M953 462L954 463L953 462M954 463L955 464L954 463M955 464L956 465L955 464M462 465L463 466L462 465M956.667 465.333L957.333 465.667L956.667 465.333M958 466L959 467L958 466M959.667 467.333L960.333 467.667L959.667 467.333M463.333 468.667L463.667 469.333L463.333 468.667M961.667 468.333L962.333 468.667L961.667 468.333M964 469L964 470L967 470L964 469z"/>
<path style="fill:#e2a715; stroke:none;" d="M613 471L613 476L614 476L613 471z"/>
<path style="fill:#f49f99; stroke:none;" d="M464.333 472.667L464.667 473.333L464.333 472.667z"/>
<path style="fill:#29325b; stroke:none;" d="M657 472C653.597 476.717 648.981 480.31 643 480.895C638.35 481.35 631.871 478.699 629 483L658 487L657 472z"/>
<path style="fill:#f49f99; stroke:none;" d="M465 476L466 477L465 476M466 480L467 481L466 480z"/>
<path style="fill:#e2a715; stroke:none;" d="M629 480L630 481L629 480z"/>
<path style="fill:#f49f99; stroke:none;" d="M470 481L470 482L474 482L470 481M579 481L580 482L579 481M478 482L478 483L482 483L478 482M582 482L583 483L582 482M486 483L486 484L490 484L486 483M585 483L586 484L585 483M630 483L630 484L633 484L630 483M494 484L494 485L498 485L494 484M588 484L589 485L588 484M636 484L636 485L639 485L636 484z"/>
<path style="fill:#e2a715; stroke:none;" d="M968 501L976 486C965.546 486.854 952.095 491.405 945.558 500.015C938.158 509.761 934.513 525.463 930.667 537C924.135 556.592 919.87 575.968 915.116 596C913.706 601.939 909.767 606.619 908.314 612.17C906.75 618.146 908 625.834 908 632L917 632C915.848 624.501 921.147 622.086 927 618.604C939.61 611.103 949.753 609.19 964 611L965 630L961 631L961 632L968 632L968 637L1052 637C1060.56 637 1076.33 640.055 1083.36 634.026C1090.73 627.704 1087 605.738 1087 597C1087 562.215 1085.83 509.677 1050 492.259C1042.24 488.489 1022.51 479.568 1014.44 485.603C1008.99 489.675 1004.7 501.914 997.911 503.462C993.441 504.481 989.287 498.459 985 497.684C979.639 496.714 973.302 500.22 968 501z"/>
<path style="fill:#f49f99; stroke:none;" d="M502 485L502 486L506 486L502 485M591 485L592 486L591 485M643 485L643 486L646 486L643 485M510 486L510 487L514 487L510 486M649 486L649 487L652 487L649 486M518 487L518 488L522 488L518 487M656.667 487.333L657.333 487.667L656.667 487.333M526 488L526 489L530 489L526 488M534 489L534 490L538 490L534 489M542 490L542 491L546 491L542 490M550 491L550 492L554 492L550 491M556 493L556 494L561 494L556 493z"/>
<path style="fill:#e2a715; stroke:none;" d="M557 494L556 507L577 500C571.224 495.215 564.306 494.02 557 494z"/>
<path style="fill:#f49f99; stroke:none;" d="M565.667 494.333L566.333 494.667L565.667 494.333M569 495L570 496L569 495M571 496L572 497L571 496M573 497L574 498L573 497M575 498L576 499L575 498M577 499L578 500L577 499M575.667 500.333L576.333 500.667L575.667 500.333M571.667 501.333L572.333 501.667L571.667 501.333M568.667 502.333L569.333 502.667L568.667 502.333M565.667 503.333L566.333 503.667L565.667 503.333M1231 503L1231 529L1232 529L1231 503M562 504L563 505L562 504M559.667 505.333L560.333 505.667L559.667 505.333M557 506L558 507L557 506M555 507L556 508L555 507M552 508L553 509L552 508M941 508L942 509L941 508M551 509L552 510L551 509M453 510L454 511L453 510M549 510L550 511L549 510M456.667 511.333L457.333 511.667L456.667 511.333M548 511L549 512L548 511M462 512L462 513L465 513L462 512M547 512L548 513L547 512M657 512C661.404 528.475 664.653 545.261 668 562C668.79 565.952 669.013 576.584 673.303 578.356C677.033 579.897 684.536 576.661 685.682 572.787C686.979 568.405 686 562.543 686 558C686 547.469 688.553 533.023 685.146 523.001C681.08 511.042 666.969 513.26 657 512M1072 512C1084.25 541.472 1087 573.271 1087 605C1087 613.288 1090.1 633.194 1079 635L1079 637L1105 637L1105 552C1105 541.67 1107.94 526.494 1100.61 518.108C1093.53 510.005 1081.6 512 1072 512M471 513L471 514L478 514L471 513M546 513L547 514L546 513M939 513L940 514L939 513z"/>
<path style="fill:#18c8b0; stroke:none;" d="M1093 513L1094 514L1093 513z"/>
<path style="fill:#29325b; stroke:none;" d="M1094 513L1094 514C1107.54 521.026 1105 535.005 1105 548L1105 637L968 637L968 632L908 632L908 637L895 637L895 654L968 654C965.961 679.615 958.988 705.699 954.424 731L928.424 876C924.639 896.987 921.211 918.056 917.197 939C915.891 945.81 916.115 958.028 912.012 963.682C907.725 969.589 884.889 966 878 966L880.603 937.147L886.351 931.687L892.974 911L916 836L917 839L918 839C928.099 799.968 932.194 758.654 939.611 719C941.604 708.346 943.277 697.63 945.4 687C946.137 683.308 948.559 676.987 947.227 673.318C945.593 668.817 930.937 671 927 671C908.64 671 880.142 668.436 869.363 687C859.151 704.59 866.5 731.224 872.695 749C874.915 755.369 879.847 763.167 879.606 770C879.145 783.099 873.935 797.188 871.211 810C865.62 836.291 860.271 862.642 855 889C852.936 899.321 850.966 909.66 849.002 920C848.424 923.038 849.604 928.599 847.473 930.892C839.356 939.626 817.903 941.879 807 946.62C802.461 948.593 798.841 951.671 796.367 956C794.656 958.993 794.345 963.881 790.853 965.397C783.939 968.397 771.497 966 764 966L701 966C700.31 958.144 696.127 950.69 688 948.558C679.826 946.413 666.123 948.719 662.353 937.96C660.567 932.862 665.817 924.112 667 919C661.932 920.207 656.904 918.671 652 919.727C641.855 921.911 633.137 929.637 624.394 918.956C616.725 909.587 626.623 884.974 628.8 874C635.494 840.268 631 802.326 631 768C640.666 767.247 637 750.282 637 743L599 743L599 768L605 768L605 948L562 948L565 966L557 966L543.424 889L514.247 726L504.919 674L500.262 655.028L484 654C494.294 733.706 513.287 812.724 526.586 892C529.884 911.658 534.568 931.236 537.153 951C538.235 959.274 534.359 965.901 526 966C524.653 951.05 506.917 948.32 495 944.333C490.927 942.971 481.245 941.587 480.886 936.06C480.692 933.08 483.806 931.139 483.772 927.957C483.549 907.373 480.496 886.541 479.09 866C475.901 819.438 472.571 773.326 466.13 727C463.723 709.684 461.744 692.307 459.271 675C458.554 669.98 459.231 659.617 455.976 655.603C453.383 652.406 444.674 654 441 654L408 654C403.912 654 397.159 652.717 393.434 654.603C389.185 656.755 389.181 668.764 388.389 673C384.841 691.97 381.83 711.047 378.197 730C363.245 808.005 346.008 887.222 336 966L219 966L219 967L1370 967L1370 966L1159 966L1159 965C1168.63 961.238 1170 952.269 1170 943L1170 889L1169 889C1166.8 895.494 1162.76 902.125 1162.1 909C1161.16 918.975 1165.1 931.804 1157.79 939.956C1149.02 949.732 1117.07 948.699 1105 945.211C1100.52 943.917 1096.44 941.073 1094.09 936.996C1087.37 925.344 1092 901.229 1092 888L1115 888L1110.01 852L1112.79 813L1101.42 749L1084 653L1105 654L1102.35 709L1105 728C1111.95 723.852 1110.41 714.07 1111.43 707C1114.06 688.674 1118 672.687 1118 654C1128.93 653.992 1131.12 646.311 1135 637L1118 637L1118 557C1118 546.849 1120.89 531.31 1116.43 522.001C1111.93 512.626 1102.88 513 1094 513z"/>
<path style="fill:#f49f99; stroke:none;" d="M1107 513L1108 514L1107 513M491 514L491 515L519 515L491 514M524 559L525 559L546 514C541.367 514 535.402 513.016 531.185 515.279C519.085 521.771 524 547.667 524 559M1109 514L1110 515L1109 514M328 516L328 526L329 526L328 516M1112 516L1113 517L1112 516z"/>
<path style="fill:#18c8b0; stroke:none;" d="M528 517L529 518L528 517z"/>
<path style="fill:#f49f99; stroke:none;" d="M1113 517L1114 518L1113 517M453 518L453 522L454 522L453 518M937 518L938 519L937 518M1114 518L1115 519L1114 518M513 519L514 520L513 519z"/>
<path style="fill:#18c8b0; stroke:none;" d="M1102 520L1103 521L1102 520M525 521L526 522L525 521z"/>
<path style="fill:#f49f99; stroke:none;" d="M1116 521L1117 522L1116 521z"/>
<path style="fill:#18c8b0; stroke:none;" d="M1103 522L1104 523L1103 522z"/>
<path style="fill:#f49f99; stroke:none;" d="M511 523L512 524L511 523M1117.33 523.667L1117.67 524.333L1117.33 523.667M1203.67 523.333L1204.33 523.667L1203.67 523.333M1217.67 523.333L1218.33 523.667L1217.67 523.333z"/>
<path style="fill:#18c8b0; stroke:none;" d="M524 524L525 525L524 524z"/>
<path style="fill:#f49f99; stroke:none;" d="M1198.67 524.333L1199.33 524.667L1198.67 524.333M1221.67 524.333L1222.33 524.667L1221.67 524.333M1195 525L1196 526L1195 525M1225 525L1226 526L1225 525M934 526L935 527L934 526M1193 526L1194 527L1193 526M1227 526L1228 527L1227 526M510 527L510 583L511 583L511 545L510 527M1233 530L1234 531L1233 530M746 537L746 539C752.068 542.15 753.471 548.534 758.498 551.972C768.463 558.786 778.357 549.015 776 539C783.849 539.022 793.333 543.043 797 534C777.625 533.168 764.437 529.324 746 537M1184 531L1185 532L1184 531M1234 531L1235 532L1234 531M454 532L454 536L455 536L454 532M1183 532L1184 533L1183 532M1235 532L1236 533L1235 532M1182 533L1183 534L1182 533M1236 533L1237 534L1236 533M1181 534L1182 535L1181 534M1180 535L1181 536L1180 535M1179 536L1180 537L1179 536M1238 536L1239 537L1238 536M930 537L931 538L930 537M1178 537L1179 538L1178 537M1177 538L1178 539L1177 538M1239 538L1240 539L1239 538M929 540L930 541L929 540M1240 540L1241 541L1240 540z"/>
<path style="fill:#18c8b0; stroke:none;" d="M1261 540.428C1229.57 544.232 1208.45 572.796 1230.67 601C1240.72 613.761 1254.83 617.601 1269 623.862C1283.8 630.401 1298.02 638.277 1313 644.397C1322.15 648.132 1333.85 653.747 1344 651.656C1361.56 648.037 1346.42 617.752 1341.69 609C1326.21 580.363 1299.23 535.802 1261 540.428z"/>
<path style="fill:#f49f99; stroke:none;" d="M1174 542L1175 543L1174 542M1241.33 542.667L1241.67 543.333L1241.33 542.667M928 543L929 544L928 543M1172 545L1173 546L1172 545M455 546L455 550L456 550L455 546M927 546L928 547L927 546M1171 546L1172 547L1171 546M1170 548L1171 549L1170 548M926 549L927 550L926 549M329 550L329 557L330 557L329 550M903 550C895.001 552.364 885.312 551 877 551L827 551C820.777 551 804.57 548.094 799.603 552.028C795.645 555.163 798 569.33 798 574C798 591.145 796.654 608.903 798.058 625.985C798.381 629.915 800.708 633.014 801 637L908 637L908 631C899.339 629.586 902 617.678 902 611C902 590.643 902.529 570.197 903 550z"/>
<path style="fill:#29325b; stroke:none;" d="M903 631L908 631L908 550C900.299 551.285 903 562.965 903 569L903 631z"/>
<path style="fill:#f49f99; stroke:none;" d="M1168 551L1169 552L1168 551z"/>
<path style="fill:#18c8b0; stroke:none;" d="M902 552L902 629L903 629L903 576L902 552z"/>
<path style="fill:#f49f99; stroke:none;" d="M925 552L926 553L925 552M1166 554L1167 555L1166 554M563 556L543 606L562 608L563.001 570L563 556M1165 556L1166 557L1165 556M1164 558L1165 559L1164 558M456 560L456 564L457 564L456 560M523 561L524 562L523 561M922 562L923 563L922 562M522.333 563.667L522.667 564.333L522.333 563.667M1161 563L1162 564L1161 563M1160 565L1161 566L1160 565M521 566L522 567L521 566M1159 567L1160 568L1159 567M520.333 568.667L520.667 569.333L520.333 568.667M519 571L520 572L519 571M1157 572L1158 573L1157 572M518.333 573.667L518.667 574.333L518.333 573.667M457.333 574.667L457.667 575.333L457.333 574.667M919 574L920 575L919 574M1156 574L1157 575L1156 574M517 576L518 577L517 576M1155 576L1156 577L1155 576M330 577L330 583L331 583L330 577M459 577L459 580L460 580L459 577M516 579L517 580L516 579M918 579L919 580L918 579M1154 579L1155 580L1154 579M515.333 581.667L515.667 582.333L515.333 581.667M1153 581L1154 582L1153 581z"/>
<path style="fill:#fcfdfe; stroke:none;" d="M849.109 583.072C841.821 586.668 845.31 603.011 853.891 598.777C861.215 595.163 857.532 578.916 849.109 583.072M1221 583C1214.58 588.779 1217 600.002 1217 608C1217 619.337 1220.81 630.037 1220.82 641C1220.84 653.58 1217 666.032 1217 679C1226.77 673.537 1225 666.057 1225 656L1225 605C1225 597.455 1225.76 589.363 1221 583z"/>
<path style="fill:#f49f99; stroke:none;" d="M917 584L918 585L917 584M1152 584L1153 585L1152 584M1217 585L1218 586L1217 585M1151.33 586.667L1151.67 587.333L1151.33 586.667M1216 586L1216 624L1217 624C1217 613.09 1220.21 596.036 1216 586M1213 587L1214 588L1213 587z"/>
<path style="fill:#fcfdfe; stroke:none;" d="M1214 587L1185 606L1185 607C1197.77 608.017 1204.96 613.955 1215 621L1214 587z"/>
<path style="fill:#f49f99; stroke:none;" d="M460 588L460 596L461 596L460 588M916 589L917 590L916 589M1150.33 589.667L1150.67 590.333L1150.33 589.667M1210 589L1211 590L1210 589M1207 591L1208 592L1207 591M500.667 593.333L501.333 593.667L500.667 593.333z"/>
<path style="fill:#29325b; stroke:none;" d="M499 594L502 634L523 634L526 595L499 594z"/>
<path style="fill:#f49f99; stroke:none;" d="M508.667 593.333L509.333 593.667L508.667 593.333M1149 593L1150 594L1149 593M1204 593L1205 594L1204 593M1225 593L1225 673L1226 673L1226 618L1225 593M512 594L513 595L512 594M525 594L526 595L525 594M915 594L916 595L915 594M515 595L516 596L515 595M524 595L525 596L524 595M1201 595L1202 596L1201 595z"/>
<path style="fill:#29325b; stroke:none;" d="M1226 595L1226 673L1227 673L1227 619L1226 595z"/>
<path style="fill:#f49f99; stroke:none;" d="M517.667 596.333L518.333 596.667L517.667 596.333M522 596L523 597L522 596M1148.33 596.667L1148.67 597.333L1148.33 596.667M1227 596L1228 597L1227 596M1198 597L1199 598L1198 597z"/>
<path style="fill:#fcfdfe; stroke:none;" d="M1227 597L1227 672C1233.18 669.95 1231 660.375 1231 655L1231 614C1231 607.714 1232.24 601.362 1227 597z"/>
<path style="fill:#f49f99; stroke:none;" d="M914 598L915 599L914 598M331 599L331 608L332 608L331 599M1195 599L1196 600L1195 599M1147.33 601.667L1147.67 602.333L1147.33 601.667M1192 601L1193 602L1192 601M499 602L499 605L500 605L499 602M525 602L525 606L526 606L525 602M913 602L914 603L913 602M1231 602L1231 670L1232 670L1232 623L1231 602M744 603L745 604L744 603z"/>
<path style="fill:#29325b; stroke:none;" d="M745 634L766 634L768 605C763.321 605.001 747.805 602.145 744.603 604.272C739.502 607.663 744.765 628.525 745 634z"/>
<path style="fill:#f49f99; stroke:none;" d="M747.667 603.333L748.333 603.667L747.667 603.333M1189 603L1190 604L1189 603z"/>
<path style="fill:#29325b; stroke:none;" d="M1232 603L1232 670L1233 670L1233 624L1232 603z"/>
<path style="fill:#f49f99; stroke:none;" d="M461 604L461 612L462 612L461 604M742 604L742 610L743 610L742 604M750.667 604.333L751.333 604.667L750.667 604.333M761 604L761 605L766 605L761 604M754 605L754 606L758 606L754 605M1186 605L1187 606L1186 605z"/>
<path style="fill:#18c8b0; stroke:none;" d="M1177 607.428C1137.43 613.097 1121.22 657.209 1114 692C1111.71 703.068 1102.76 739.281 1123 737.903C1133.33 737.199 1143.38 728.199 1151 721.916C1163.92 711.264 1176.07 699.723 1189 689.084C1199.73 680.254 1211.62 672.565 1216.93 659C1228.17 630.282 1208.56 602.907 1177 607.428z"/>
<path style="fill:#f49f99; stroke:none;" d="M909 609L910 610L909 609M965 630L964 611C949.707 608.307 938.55 611.138 926 618.604C922.544 620.66 915.327 623.756 916.492 628.867C917.837 634.765 925.538 629.644 929 629.729C940.174 630.005 954.115 634.593 965 630M767 611L767 616L768 616L767 611M500 613L500 616L501 616L500 613M524 614L524 617L525 617L524 614M651 636C659.155 637.942 676.131 639.521 683.956 636.142C695.151 631.307 684.933 622.553 678 621.015C674.364 620.209 670.66 619.69 667 619L668 616C651.135 611.026 653.694 625.037 651 636M1147 615L1148 616L1147 615M743 616L743 622L744 622L743 616M1148 617L1149 618L1148 617M462 620L462 628L463 628L462 620M330 621L330 625L331 625L330 621M766 622L766 628L767 628L766 622M501 625L501 628L502 628L501 625M523 625L523 629L524 629L523 625M744 628L744 633L745 633L744 628M462 629L463 630L462 629z"/>
<path style="fill:#e2a715; stroke:none;" d="M923 631L923 632L935 632C931.033 628.849 927.53 629.101 923 631z"/>
<path style="fill:#f49f99; stroke:none;" d="M461 630L462 631L461 630z"/>
<path style="fill:#e2a715; stroke:none;" d="M943 631L943 632L954 632L943 631z"/>
<path style="fill:#f49f99; stroke:none;" d="M502 634L502 635L523 635L502 634M745 634L745 635L766 635L745 634M461.333 635.667L461.667 636.333L461.333 635.667M319 645L319 653L375 654L333.197 887L323 944L317.683 963.972L291 965L219 965L219 966L306 966C311.711 966 332.191 967.878 335.825 963.397C339.056 959.412 338.853 949.957 339.803 945C342.797 929.384 345.628 913.683 348.247 898C358.063 839.218 369.937 780.782 379.753 722C382.429 705.976 385.402 689.969 388.389 674C389.299 669.132 389.141 659.253 392.742 655.603C395.963 652.338 404.794 654 409 654C424.256 654 442.136 651.461 457 655L475 653L499.567 655.028L503.803 669L511.197 710L557 965L565 965L562 948L605 948L605 947L561 947L547.424 869L520.92 720L511 654L524 654C524 679.707 516.839 719.893 550 728.39C558.29 730.515 568.471 729 577 729L577 728C547.754 719.333 559.997 676.216 560 654L524 654L524 653L895 653L895 645L319 645z"/>
<path style="fill:#fcfdfe; stroke:none;" d="M457 653C457.78 690.771 467.341 729.478 471.845 767C475.671 798.873 475.254 831.237 479.424 863C481.664 880.059 482.28 897.811 483.039 915C483.311 921.138 486.522 929.404 480 933C482.248 947.025 508.927 946.405 518.985 953.649C522.815 956.407 525.091 964.404 530.011 964.793C534.554 965.153 536.325 959.635 536.964 956C538.443 947.58 534.397 936.316 532.803 928C529.426 910.382 526.321 892.674 523.25 875C514.324 823.624 504.676 772.376 495.75 721C491.891 698.787 484.967 675.523 484 653L457 653M501 653L501 654L509 654L509 658L510 658L510 653L501 653M524 653L524 654L560 654L558 693L663 684L664 654L686 654L686 683C700.793 683 726.565 682.053 735.867 696.039C742.443 705.929 741 718.76 741 730C745.378 730.24 751.299 732.213 749.777 737.957C748.149 744.098 741.063 740.962 738.514 745.318C733.013 754.716 732.26 770.426 728.974 781C717.605 817.586 702.661 853.216 686.691 888C678.564 905.702 665.347 920.209 661 939C664.695 941.646 668.562 945.211 673 946.49C684.904 949.921 699.252 948.043 701 965L765 965C772.058 965 785.22 967.56 791.57 964.397C794.353 963.01 794.98 958.491 796.482 956.004C799.2 951.505 803.23 948.35 808 946.243C817.34 942.118 827.384 939.126 837 935.692C840.172 934.559 846.018 933.634 847.883 930.501C849.492 927.796 848.378 922.219 849.001 919C851.132 907.987 853.4 896.999 855.6 886C860.602 860.999 865.169 835.849 870.881 811C873.794 798.329 880.097 781.962 879.617 769C879.374 762.452 874.873 755.134 872.692 749C865.015 727.409 854.571 688.348 882 675.904C887.622 673.354 893.946 672.447 900 671.579C908.845 670.312 918.077 671 927 671L928 654L524 653z"/>
<path style="fill:#f49f99; stroke:none;" d="M1084 653L1113 813L1114 813C1122.49 797.036 1113.55 774.325 1110.42 757C1107.71 741.972 1102.63 725.265 1102.47 710C1102.43 705.307 1104.58 700.711 1104.91 696C1105.88 682.132 1105 667.903 1105 654L1084 653z"/>
<path style="fill:#29325b; stroke:none;" d="M337 654L358 743L359 743L375 654L337 654M511 654C511 672.545 515.818 690.768 518.919 709C520.296 717.097 520.414 726.981 527.019 732.671C539.581 743.495 556.352 744.001 572 744C577.487 744 588.086 744.802 588.663 736.988C589.142 730.499 581.819 729.636 577 729.17C562.289 727.745 549.211 731.553 537.001 720.815C518.361 704.423 524 676.357 524 654L511 654z"/>
<path style="fill:#f49f99; stroke:none;" d="M664 654L663 684L686 683L686 654L664 654z"/>
<path style="fill:#e2a715; stroke:none;" d="M928 654L927 671L948 672L951 654L928 654z"/>
<path style="fill:#f49f99; stroke:none;" d="M951 654L938.424 725L910.576 882L896 965L878 965L878 966L913 965L927.576 882L954.424 732L968 654L951 654z"/>
<path style="fill:#e2a715; stroke:none;" d="M978 654L975 674L1031 678.831L1072 683L1067 654L978 654z"/>
<path style="fill:#fcfdfe; stroke:none;" d="M1118 654L1118 675L1119 675L1126 654L1118 654z"/>
<path style="fill:#f49f99; stroke:none;" d="M337.333 656.667L337.667 657.333L337.333 656.667z"/>
<path style="fill:#18c8b0; stroke:none;" d="M374 656L375 657L374 656z"/>
<path style="fill:#f49f99; stroke:none;" d="M484.333 657.667L484.667 658.333L484.333 657.667M457 659L457 662L458 662L457 659M1216 660L1216 679L1217 679L1216 660M338.333 661.667L338.667 662.333L338.333 661.667z"/>
<path style="fill:#18c8b0; stroke:none;" d="M373 661L374 662L373 661z"/>
<path style="fill:#f49f99; stroke:none;" d="M485 662L485 665L486 665L485 662z"/>
<path style="fill:#29325b; stroke:none;" d="M1215 662L1215 681L1216 681L1215 662z"/>
<path style="fill:#fcfdfe; stroke:none;" d="M1214 664C1209.47 670.63 1200.33 676.594 1197.6 684C1195.9 688.63 1197 695.125 1197 700C1197 706.118 1195.22 713.394 1203 714C1203 706.761 1203.83 699.66 1206.9 693C1211.36 683.333 1218.86 675.593 1214 664z"/>
<path style="fill:#f49f99; stroke:none;" d="M339 666L340 667L339 666z"/>
<path style="fill:#18c8b0; stroke:none;" d="M372 667L373 668L372 667z"/>
<path style="fill:#f49f99; stroke:none;" d="M458 667L458 670L459 670L458 667z"/>
<path style="fill:#18c8b0; stroke:none;" d="M511 667L512 668L511 667M1244 667.439C1211.53 672.511 1193.36 702.998 1209.32 733C1217.49 748.343 1231.08 756.685 1244 767.435C1259.35 780.202 1273.68 794.128 1289 806.92C1301.13 817.042 1319.51 834.957 1337 831.772C1344.89 830.334 1347.87 821.889 1349.2 815C1352.44 798.098 1348.78 779.553 1345.21 763C1339.67 737.326 1329.65 706.209 1310.91 687.04C1294.86 670.616 1266.22 663.969 1244 667.439z"/>
<path style="fill:#f49f99; stroke:none;" d="M486.333 668.667L486.667 669.333L486.333 668.667M340 671L341 672L340 671M900 671L900 672L905 672L900 671M893 672L893 673L896 673L893 672M487 673L487 676L488 676L487 673M889 673L890 674L889 673M459 674L459 677L460 677L459 674M885 674L886 675L885 674M341 675L342 676L341 675M882 675L883 676L882 675M1118 675L1119 676L1118 675M880 676L881 677L880 676M878 677L879 678L878 677z"/>
<path style="fill:#18c8b0; stroke:none;" d="M513 678L514 679L513 678z"/>
<path style="fill:#f49f99; stroke:none;" d="M488.333 679.667L488.667 680.333L488.333 679.667M875 679L876 680L875 679M342 680L343 681L342 680M874 680L875 681L874 680M873 681L874 682L873 681M460 682L460 685L461 685L460 682M872 682L873 683L872 682z"/>
<path style="fill:#18c8b0; stroke:none;" d="M657 730C650.888 777.326 638.084 824.156 629.196 871C626.976 882.7 615.894 910.036 624.394 919.892C632.12 928.851 642.108 923.391 651 920.441C656.476 918.625 662.407 920.862 667.996 918.891C677.064 915.695 680.046 902.912 683.781 895C700.055 860.523 714.607 825.179 726.667 789C734.94 764.181 742.848 737.419 740.91 711C739.343 689.641 722.319 685.254 704 683.911C671.558 681.533 639.328 686.684 607 688.911C595.046 689.734 582.883 690.015 571 691.576C567.594 692.023 561.285 690.89 559.224 694.318C551.996 706.339 564.182 723.708 575 727.931C584.166 731.508 594.35 730 604 730L657 730z"/>
<path style="fill:#29325b; stroke:none;" d="M1196 683L1196 714C1158.37 715.641 1156 752.89 1156 782C1174.67 782.804 1189.79 796.036 1191.83 815C1192.85 824.495 1190.24 832.775 1189 842C1202.23 842 1209.36 833.247 1214 821L1215 821L1215 842L1216 842L1216.65 820L1225 805L1226 805L1226 842L1227 842C1227 829.711 1222.34 805.958 1232 797L1232 842L1233 842L1233.43 796L1241 783L1242 783L1238.58 827L1241.94 840.397L1258 842L1305 842C1305 856.18 1295.3 869.811 1302.56 883.61C1305.16 888.542 1315.15 891.308 1320 893.424C1332.96 899.077 1365.3 918.194 1377.49 902.892C1383.37 895.517 1381.04 883.379 1379.11 875C1373.78 851.827 1363.01 830.368 1351 810C1346.51 817.441 1347.58 828.685 1337 831.566C1329.92 833.495 1321.92 829.445 1316 825.988C1301.05 817.261 1287.78 805.516 1275 793.925C1270.88 790.187 1263.67 780.805 1258 780.06C1251.33 779.184 1245.49 791.926 1244 797L1243 797C1243 791.437 1242.39 785.473 1243.51 780C1244.24 776.454 1246.78 771.827 1244.93 768.289C1241.72 762.14 1232.21 757.952 1227 753.561C1215.58 743.935 1204.71 729.476 1204 714L1197 714L1196 683z"/>
<path style="fill:#f49f99; stroke:none;" d="M343 684L344 685L343 684z"/>
<path style="fill:#fcfdfe; stroke:none;" d="M1111 723L1110 723C1100.26 737.186 1112.33 767.806 1115.08 784C1116.14 790.251 1116.35 798.746 1120 804C1125.62 796.623 1132.53 790.285 1141 786.323C1144.58 784.649 1152.55 784.28 1154.97 781.258C1157.68 777.881 1155.95 769.115 1156 765C1156.12 755.468 1157.75 744.82 1161.46 736C1165.24 727.056 1173.17 720.665 1182 717.019C1185.43 715.602 1192.68 715.424 1194.97 712.411C1199.01 707.109 1196 690.583 1196 684C1173.76 693.417 1157.51 718.504 1137 731.564C1125.34 738.987 1111.42 740.871 1111 723z"/>
<path style="fill:#f49f99; stroke:none;" d="M489.333 685.667L489.667 686.333L489.333 685.667M648 685L649 686L648 685M869 686L870 687L869 686M344 688L345 689L344 688M868 688L869 689L868 688z"/>
<path style="fill:#18c8b0; stroke:none;" d="M368 689L369 690L368 689z"/>
<path style="fill:#f49f99; stroke:none;" d="M461 689L461 692L462 692L461 689z"/>
<path style="fill:#18c8b0; stroke:none;" d="M515.333 689.667L515.667 690.333L515.333 689.667z"/>
<path style="fill:#f49f99; stroke:none;" d="M490.333 690.667L490.667 691.333L490.333 690.667M867 690L868 691L867 690z"/>
<path style="fill:#18c8b0; stroke:none;" d="M944 691L945 692L944 691z"/>
<path style="fill:#f49f99; stroke:none;" d="M345.333 692.667L345.667 693.333L345.333 692.667M866 693L867 694L866 693z"/>
<path style="fill:#18c8b0; stroke:none;" d="M367 695L368 696L367 695M516 695L517 696L516 695z"/>
<path style="fill:#fcfdfe; stroke:none;" d="M558 695L558 698L559 698L558 695z"/>
<path style="fill:#f49f99; stroke:none;" d="M491.333 696.667L491.667 697.333L491.333 696.667M346 697L347 698L346 697M462 697L462 700L463 700L462 697M865.333 697.667L865.667 698.333L865.333 697.667z"/>
<path style="fill:#18c8b0; stroke:none;" d="M366 700L367 701L366 700z"/>
<path style="fill:#f49f99; stroke:none;" d="M347 701L348 702L347 701M492 701L492 704L493 704L492 701z"/>
<path style="fill:#18c8b0; stroke:none;" d="M517 701L518 702L517 701M942.333 702.667L942.667 703.333L942.333 702.667z"/>
<path style="fill:#f49f99; stroke:none;" d="M864 703L864 714L865 714L864 703M463 704L463 707L464 707L463 704M1075 704C1069.47 713.137 1063.18 722.26 1054 728L1054 729C1059.73 729 1073.83 731.575 1078.38 727.821C1082.12 724.743 1077 707.753 1075 704M348 705L349 706L348 705z"/>
<path style="fill:#18c8b0; stroke:none;" d="M1074 705L1075 706L1074 705M365 706L366 707L365 706M518 706L519 707L518 706z"/>
<path style="fill:#f49f99; stroke:none;" d="M493.333 707.667L493.667 708.333L493.333 707.667z"/>
<path style="fill:#18c8b0; stroke:none;" d="M941 708L942 709L941 708z"/>
<path style="fill:#f49f99; stroke:none;" d="M349 709L350 710L349 709z"/>
<path style="fill:#18c8b0; stroke:none;" d="M527 709L528 710L527 709M528 711L529 712L528 711M1070 711L1071 712L1070 711M1102 711L1103 712L1102 711z"/>
<path style="fill:#f49f99; stroke:none;" d="M464 712L464 715L465 715L464 712M494 712L494 715L495 715L494 712M350 713L351 714L350 713M1195 713L1196 714L1195 713M1197 713L1198 714L1197 713z"/>
<path style="fill:#18c8b0; stroke:none;" d="M940 714L941 715L940 714z"/>
<path style="fill:#f49f99; stroke:none;" d="M1190 714L1191 715L1190 714M1185.67 715.333L1186.33 715.667L1185.67 715.333M351.333 716.667L351.667 717.333L351.333 716.667M1183 716L1184 717L1183 716z"/>
<path style="fill:#18c8b0; stroke:none;" d="M520 717L521 718L520 717z"/>
<path style="fill:#f49f99; stroke:none;" d="M1180 717L1181 718L1180 717M495.333 718.667L495.667 719.333L495.333 718.667M1178 718L1179 719L1178 718M465 719L465 723L466 723L465 719M865 719L865 722L866 722L865 719z"/>
<path style="fill:#18c8b0; stroke:none;" d="M939 719L940 720L939 719z"/>
<path style="fill:#f49f99; stroke:none;" d="M1176 719L1177 720L1176 719M352 720L353 721L352 720z"/>
<path style="fill:#18c8b0; stroke:none;" d="M1063 720L1064 721L1063 720z"/>
<path style="fill:#f49f99; stroke:none;" d="M1173 721L1174 722L1173 721z"/>
<path style="fill:#18c8b0; stroke:none;" d="M1104 722L1105 723L1104 722M521 723L522 724L521 723z"/>
<path style="fill:#f49f99; stroke:none;" d="M1170 723L1171 724L1170 723M353 724L354 725L353 724M496.333 724.667L496.667 725.333L496.333 724.667M1169 724L1170 725L1169 724M866.333 725.667L866.667 726.333L866.333 725.667M1108 725L1109 726L1108 725M1168 725L1169 726L1168 725M1107 726L1108 727L1107 726M1167 726L1168 727L1167 726M466 727L466 730L467 730L466 727z"/>
<path style="fill:#18c8b0; stroke:none;" d="M547 727L548 728L547 727z"/>
<path style="fill:#f49f99; stroke:none;" d="M1166 727L1167 728L1166 727M354 728L355 729L354 728z"/>
<path style="fill:#18c8b0; stroke:none;" d="M361 728L362 729L361 728z"/>
<path style="fill:#fcfdfe; stroke:none;" d="M522 728L547.424 870L561 947L605 947L605 768L599 768L599 744C580.596 744 558.452 747.364 541 740.536C533.565 737.628 528.384 732.479 522 728z"/>
<path style="fill:#18c8b0; stroke:none;" d="M1105 728L1106 729L1105 728z"/>
<path style="fill:#f49f99; stroke:none;" d="M1165 728L1166 729L1165 728M497 729L497 732L498 732L497 729M579 729L580 730L579 729M586 730C588.815 735.633 589.263 739.91 583 743L583 744L633 743.089L653.436 742.972L657 730L586 730M741 730L739 743C751.293 742.965 754.547 730.328 741 730M867.333 730.667L867.667 731.333L867.333 730.667z"/>
<path style="fill:#18c8b0; stroke:none;" d="M937 730L938 731L937 730z"/>
<path style="fill:#f49f99; stroke:none;" d="M962 744L1029 743L1029 768L1030 768L1030 744L1046 744L1046 743C1039.58 739.908 1039.88 735.679 1043 730L987 730L965.589 731.028L962 744M1163 731L1164 732L1163 731M355 732L356 733L355 732z"/>
<path style="fill:#18c8b0; stroke:none;" d="M1040 733L1041 734L1040 733z"/>
<path style="fill:#f49f99; stroke:none;" d="M1162 733L1163 734L1162 733z"/>
<path style="fill:#18c8b0; stroke:none;" d="M360 734L361 735L360 734z"/>
<path style="fill:#f49f99; stroke:none;" d="M467 734L467 738L468 738L467 734M529 734L530 735L529 734M868.333 734.667L868.667 735.333L868.333 734.667M356 735L357 736L356 735M498.333 735.667L498.667 736.333L498.333 735.667M1161 735L1162 736L1161 735M532 736L533 737L532 736z"/>
<path style="fill:#18c8b0; stroke:none;" d="M936 736L937 737L936 736z"/>
<path style="fill:#f49f99; stroke:none;" d="M534 737L535 738L534 737M536 738L537 739L536 738M869 738L870 739L869 738M1160 738L1161 739L1160 738M357 739L358 740L357 739z"/>
<path style="fill:#18c8b0; stroke:none;" d="M359 739L360 740L359 739z"/>
<path style="fill:#f49f99; stroke:none;" d="M538 739L539 740L538 739z"/>
<path style="fill:#18c8b0; stroke:none;" d="M1040 739L1041 740L1040 739z"/>
<path style="fill:#f49f99; stroke:none;" d="M499 740L499 743L500 743L499 740M540 740L541 741L540 740M543 741L544 742L543 741M870.333 741.667L870.667 742.333L870.333 741.667z"/>
<path style="fill:#18c8b0; stroke:none;" d="M935.333 741.667L935.667 742.333L935.333 741.667z"/>
<path style="fill:#f49f99; stroke:none;" d="M1159 741L1160 742L1159 741M468 742L468 745L469 745L468 742M547.667 742.333L548.333 742.667L547.667 742.333z"/>
<path style="fill:#18c8b0; stroke:none;" d="M585 742L586 743L585 742z"/>
<path style="fill:#f49f99; stroke:none;" d="M1080 742L1080 743L1083 743L1080 742M552 743L552 744L555 744L552 743z"/>
<path style="fill:#18c8b0; stroke:none;" d="M582 743L583 744L582 743z"/>
<path style="fill:#f49f99; stroke:none;" d="M1074.67 743.333L1075.33 743.667L1074.67 743.333z"/>
<path style="fill:#fcfdfe; stroke:none;" d="M1030 744L1030 768L1024 768L1024 947L1039 947L1039 886C1039 876.828 1038.44 866.552 1047.02 860.703C1056.8 854.027 1077.55 858 1089 858L1099.76 839.896L1095.25 813L1083 743L1030 744M637 744L637 768L631 768L631 861L632 861L641.6 811L655 744L637 744M962 744C960.699 760.344 950.709 780.853 953.429 797C955.168 807.325 962.402 818.479 966.694 828C976.895 850.627 989.002 873.513 997 897L998 897L998 768L992 768L992 744L962 744z"/>
<path style="fill:#f49f99; stroke:none;" d="M871 745L872 746L871 745M1083 745L1083 748L1084 748L1083 745M1158.33 745.667L1158.67 746.333L1158.33 745.667M500.333 746.667L500.667 747.333L500.333 746.667M961 746L961 749L962 749L961 746z"/>
<path style="fill:#18c8b0; stroke:none;" d="M934 747L935 748L934 747z"/>
<path style="fill:#f49f99; stroke:none;" d="M872 748L873 749L872 748M469 749L469 753L470 753L469 749M1157.33 750.667L1157.67 751.333L1157.33 750.667M873 751L874 752L873 751M1084.33 751.667L1084.67 752.333L1084.33 751.667M501.333 752.667L501.667 753.333L501.333 752.667M960.333 752.667L960.667 753.333L960.333 752.667M874 753L875 754L874 753z"/>
<path style="fill:#18c8b0; stroke:none;" d="M933 753L934 754L933 753z"/>
<path style="fill:#f49f99; stroke:none;" d="M875 756L876 757L875 756M470 757L470 760L471 760L470 757M502.333 757.667L502.667 758.333L502.333 757.667M959 757L959 760L960 760L959 757M1085.33 757.667L1085.67 758.333L1085.33 757.667z"/>
<path style="fill:#18c8b0; stroke:none;" d="M932 758L933 759L932 758z"/>
<path style="fill:#f49f99; stroke:none;" d="M1156 758L1156 761L1157 761L1156 758M876 759L877 760L876 759M877 761L878 762L877 761M1086.33 762.667L1086.67 763.333L1086.33 762.667M503.333 763.667L503.667 764.333L503.333 763.667M958.333 763.667L958.667 764.333L958.333 763.667M471 764L471 768L472 768L471 764M878 764L879 765L878 764M879 766L880 767L879 766M636 767L637 768L636 767M504 768L504 771L505 771L504 768M1087.33 768.667L1087.67 769.333L1087.33 768.667z"/>
<path style="fill:#18c8b0; stroke:none;" d="M930 769L931 770L930 769z"/>
<path style="fill:#f49f99; stroke:none;" d="M957.333 769.667L957.667 770.333L957.333 769.667M1246 769L1247 770L1246 769z"/>
<path style="fill:#fcfdfe; stroke:none;" d="M1246 770L1243 796L1244 796C1249.35 785.95 1261.67 776.636 1246 770z"/>
<path style="fill:#f49f99; stroke:none;" d="M879 771L880 772L879 771M472 772L472 775L473 775L472 772M1245.33 772.667L1245.67 773.333L1245.33 772.667M1088 773L1088 776L1089 776L1088 773M505.333 774.667L505.667 775.333L505.333 774.667M956.333 774.667L956.667 775.333L956.333 774.667M878.333 775.667L878.667 776.333L878.333 775.667z"/>
<path style="fill:#18c8b0; stroke:none;" d="M929 775L930 776L929 775z"/>
<path style="fill:#f49f99; stroke:none;" d="M1244 776L1245 777L1244 776M1256 778L1257 779L1256 778M506 779L506 782L507 782L506 779M1089.33 779.667L1089.67 780.333L1089.33 779.667M1255 779L1256 780L1255 779M420 780L421 781L420 780M473 780L473 785L474 785L473 780M877.333 780.667L877.667 781.333L877.333 780.667z"/>
<path style="fill:#18c8b0; stroke:none;" d="M928.333 780.667L928.667 781.333L928.333 780.667z"/>
<path style="fill:#f49f99; stroke:none;" d="M955.333 780.667L955.667 781.333L955.333 780.667M1254 780L1255 781L1254 780z"/>
<path style="fill:#fcfdfe; stroke:none;" d="M420 781C419.998 798.454 411.189 815.028 404.8 831C394.75 856.124 384.439 881.155 373.719 906C368.846 917.295 361.414 929.402 358 941L393 952.089L405.225 964.682L447 965L447 936C442.763 933.408 442.932 928.587 442.271 924C440.877 914.329 439.33 904.68 438 895C434.422 868.958 430.103 843.006 426.272 817C424.668 806.114 425.178 790.739 420 781z"/>
<path style="fill:#f49f99; stroke:none;" d="M1253 781L1254 782L1253 781z"/>
<path style="fill:#18c8b0; stroke:none;" d="M1154 782.428C1101.57 789.871 1107.04 849.64 1115.21 888C1117.8 900.137 1121.54 913.45 1128.23 923.996C1130.99 928.345 1135.22 933.797 1141 933.471C1154.34 932.719 1161.54 909.13 1165.6 899C1175.77 873.591 1193.22 843.701 1191.96 816C1191.07 796.49 1174.04 779.583 1154 782.428z"/>
<path style="fill:#f49f99; stroke:none;" d="M421.333 783.667L421.667 784.333L421.333 783.667M1241 783L1241 801L1242 801L1241 783M876.333 784.667L876.667 785.333L876.333 784.667M1090 784L1090 787L1091 787L1090 784M507.333 785.667L507.667 786.333L507.333 785.667M954 785L954 788L955 788L954 785z"/>
<path style="fill:#fcfdfe; stroke:none;" d="M1240 785C1229.47 801.862 1233 822.348 1233 842L1241 842C1240.26 833.495 1237.33 825.721 1238.17 817C1239.13 807.07 1244.08 794.732 1240 785z"/>
<path style="fill:#18c8b0; stroke:none;" d="M927 786L928 787L927 786z"/>
<path style="fill:#f49f99; stroke:none;" d="M1239 786L1240 787L1239 786M1249 786L1250 787L1249 786M422 789L422 792L423 792L422 789M875.333 789.667L875.667 790.333L875.333 789.667M1247 789L1248 790L1247 789M1091.33 790.667L1091.67 791.333L1091.33 790.667M1236 790L1237 791L1236 790M419 791L420 792L419 791M508.333 791.667L508.667 792.333L508.333 791.667M953.333 791.667L953.667 792.333L953.333 791.667M1235 791L1236 792L1235 791M1234 792L1235 793L1234 792M474 793L474 799L475 799L474 793M418.333 794.667L418.667 795.333L418.333 794.667M874 794L875 795L874 794M1244 794L1245 795L1244 794M423.333 796.667L423.667 797.333L423.333 796.667M509.333 796.667L509.667 797.333L509.333 796.667M1092.33 796.667L1092.67 797.333L1092.33 796.667M1243 796L1244 797L1243 796M417.333 797.667L417.667 798.333L417.333 797.667z"/>
<path style="fill:#18c8b0; stroke:none;" d="M925 797L926 798L925 797z"/>
<path style="fill:#f49f99; stroke:none;" d="M1230 797L1231 842L1226 842L1226 805L1225 805L1225 842L1217 842L1217 819L1216 819L1216 842C1209.13 842 1194.44 838.976 1188.64 843.028C1183.66 846.506 1180.89 857.456 1179 863L1182 864C1172.99 896.048 1177 932.036 1177 965L1159 965L1159 966L1370 966L1370 965L1304 965L1303.91 907L1299.76 867L1304.57 857L1305 842L1232 842L1232 809L1230 797M873.333 798.667L873.667 799.333L873.333 798.667M953 798L954 799L953 798z"/>
<path style="fill:#fcfdfe; stroke:none;" d="M1230 798C1223.44 809.706 1227 828.848 1227 842L1231 842C1231 829.52 1234.81 809.463 1230 798z"/>
<path style="fill:#f49f99; stroke:none;" d="M416 800L417 801L416 800M954 800L955 801L954 800M1228 800L1229 801L1228 800M1093.33 801.667L1093.67 802.333L1093.33 801.667M424 802L424 805L425 805L424 802M510.333 802.667L510.667 803.333L510.333 802.667M955 802L956 803L955 802M1227 802L1228 803L1227 802M415 803L416 804L415 803M872.333 803.667L872.667 804.333L872.333 803.667M1240.33 804.667L1240.67 805.333L1240.33 804.667M414 806L415 807L414 806M475 807L475 813L476 813L475 807M511 807L511 810L512 810L511 807M957 807L958 808L957 807M1094.33 807.667L1094.67 808.333L1094.33 807.667z"/>
<path style="fill:#fcfdfe; stroke:none;" d="M1224 807C1216.13 818.661 1217 828.35 1217 842L1225 842L1224 807z"/>
<path style="fill:#f49f99; stroke:none;" d="M413 808L414 809L413 808M871 808L872 809L871 808z"/>
<path style="fill:#18c8b0; stroke:none;" d="M923 808L924 809L923 808z"/>
<path style="fill:#f49f99; stroke:none;" d="M1239.33 808.667L1239.67 809.333L1239.33 808.667M425 809L425 812L426 812L425 809M958 809L959 810L958 809M1222 809L1223 810L1222 809M1350 809L1351 810L1350 809M412 811L413 812L412 811M959 811L960 812L959 811M870.333 812.667L870.667 813.333L870.333 812.667M1095 812L1095 815L1096 815L1095 812M1220 812L1221 813L1220 812M512.333 813.667L512.667 814.333L512.333 813.667M411 814L412 815L411 814M1238 814L1238 817L1239 817L1238 814M1353 814L1354 815L1353 814M1218 815L1219 816L1218 815M410 816L411 817L410 816M426 816L426 819L427 819L426 816M961 816L962 817L961 816M1354 816L1355 817L1354 816M869.333 817.667L869.667 818.333L869.333 817.667M513 818L513 821L514 821L513 818M962 818L963 819L962 818M1096.33 818.667L1096.67 819.333L1096.33 818.667M409 819L410 820L409 819M1356 819L1357 820L1356 819M963 820L964 821L963 820M408 821L409 822L408 821M476 821L476 827L477 827L476 821M1214 821L1215 822L1214 821M1357 821L1358 822L1357 821M427 822L427 825L428 825L427 822M868.333 822.667L868.667 823.333L868.333 822.667z"/>
<path style="fill:#fcfdfe; stroke:none;" d="M1214 822L1201 842L1215 842L1214 822z"/>
<path style="fill:#f49f99; stroke:none;" d="M1097 823L1097 826L1098 826L1097 823M1358 823L1359 824L1358 823M407 824L408 825L407 824M514.333 824.667L514.667 825.333L514.333 824.667M1212 824L1213 825L1212 824M965 825L966 826L965 825M1359 825L1360 826L1359 825M406 826L407 827L406 826M1238 826L1238 829L1239 829L1238 826M867 827L868 828L867 827M966 827L967 828L966 827M1210 827L1211 828L1210 827M405 829L406 830L405 829M428 829L428 832L429 832L428 829M967 829L968 830L967 829M1098.33 829.667L1098.67 830.333L1098.33 829.667M515.333 830.667L515.667 831.333L515.333 830.667M1208 830L1209 831L1208 830M404 831L405 832L404 831M866.333 831.667L866.667 832.333L866.333 831.667M1206 833L1207 834L1206 833M1239.33 833.667L1239.67 834.333L1239.33 833.667M403 834L404 835L403 834M969 834L970 835L969 834M477 835L477 841L478 841L477 835M516.333 835.667L516.667 836.333L516.333 835.667M1099.33 835.667L1099.67 836.333L1099.33 835.667M402 836L403 837L402 836M429 836L429 839L430 839L429 836M865.333 836.667L865.667 837.333L865.333 836.667M915 836L917 838L915 836M970 836L971 837L970 836z"/>
<path style="fill:#fcfdfe; stroke:none;" d="M915 837C911.327 861.868 900.439 888.073 892.67 912C890.367 919.092 889.649 932.625 881 934L878 965L896 965C900.043 933.177 907.54 901.627 912.919 870C914.308 861.833 921.39 843.281 915 837z"/>
<path style="fill:#f49f99; stroke:none;" d="M1203 837L1204 838L1203 837M1240 837L1241 838L1240 837M1365 837L1366 838L1365 837M971 838L972 839L971 838M401 839L402 840L401 839M914.333 839.667L914.667 840.333L914.333 839.667M1366 839L1367 840L1366 839M1100 840L1089 858L1092 858C1092.69 851.269 1096.6 846.815 1102 843L1100 840M400 841L401 842L400 841M517.333 841.667L517.667 842.333L517.333 841.667M864.333 841.667L864.667 842.333L864.333 841.667M1105 841L1106 842L1105 841M1367 841L1368 842L1367 841z"/>
<path style="fill:#18c8b0; stroke:none;" d="M1102 842L1103 843L1102 842z"/>
<path style="fill:#f49f99; stroke:none;" d="M430.333 843.667L430.667 844.333L430.333 843.667M913 843L914 844L913 843M973 843L974 844L973 843z"/>
<path style="fill:#18c8b0; stroke:none;" d="M1100 843L1101 844L1100 843z"/>
<path style="fill:#f49f99; stroke:none;" d="M1368 843L1369 844L1368 843M399 844L400 845L399 844M974 845L975 846L974 845M398 846L399 847L398 846M518 846L518 849L519 849L518 846M863.333 846.667L863.667 847.333L863.333 846.667M912 846L913 847L912 846M975 847L976 848L975 847M1370 848L1371 849L1370 848M397 849L398 850L397 849M431 849L431 852L432 852L431 849M478 849L478 855L479 855L478 849M911.333 849.667L911.667 850.333L911.333 849.667M1371 850L1372 851L1371 850M396 851L397 852L396 851M862.333 851.667L862.667 852.333L862.333 851.667M519.333 852.667L519.667 853.333L519.333 852.667M977 852L978 853L977 852M910 853L911 854L910 853M1372 853L1373 854L1372 853M395 854L396 855L395 854M978 854L979 855L978 854M1373.33 855.667L1373.67 856.333L1373.33 855.667M394 856L395 857L394 856M432 856L432 859L433 859L432 856M861.333 856.667L861.667 857.333L861.333 856.667M909 856L910 857L909 856M979 856L980 857L979 856M520 857L520 860L521 860L520 857M393 858L394 859L393 858M1039 947L1024 947L1024 948L1039 948C1039.77 965.76 1064.69 975.214 1073.43 956.999C1076.8 949.971 1075 939.605 1075 932C1075 912.871 1078.07 890.813 1074.67 872C1071.77 855.909 1046.59 852.259 1040.56 868C1037.45 876.13 1039 886.448 1039 895L1039 947M1374 858L1375 859L1374 858M908.333 859.667L908.667 860.333L908.333 859.667M392 861L393 862L392 861M860 861L861 862L860 861M981 861L982 862L981 861M1375 861L1376 862L1375 861M907.333 862.667L907.667 863.333L907.333 862.667M391 863L392 864L391 863M433 863L433 866L434 866L433 863M479 863L479 870L480 870L479 863M521.333 863.667L521.667 864.333L521.333 863.667M982 863L983 864L982 863z"/>
<path style="fill:#fcfdfe; stroke:none;" d="M1179 863C1169.02 885.408 1170 905.941 1170 930C1170 942.491 1172.43 955.755 1161 964L1161 965L1177 965C1177 931.126 1175.13 897.308 1182 864L1181 863L1179 863z"/>
<path style="fill:#f49f99; stroke:none;" d="M1376 864L1377 865L1376 864M983 865L984 866L983 865M390 866L391 867L390 866M859 866L860 867L859 866M906 866L907 867L906 866M1377.33 867.667L1377.67 868.333L1377.33 867.667M389 868L390 869L389 868M434 869L434 872L435 872L434 869M522.333 869.667L522.667 870.333L522.333 869.667M905 869L906 870L905 869M388 870L389 871L388 870M985 870L986 871L985 870M858 871L859 872L858 871M1378.33 871.667L1378.67 872.333L1378.33 871.667M904.333 872.667L904.667 873.333L904.333 872.667M986 872L987 873L986 872M387 873L388 874L387 873M939 873L940 874L939 873M523 874L523 877L524 877L523 874z"/>
<path style="fill:#fcfdfe; stroke:none;" d="M939 874L923 965C929.669 963.843 931.498 953.134 938.001 949.558C947.166 944.517 964.384 951.821 971.397 944.196C975.212 940.047 972.432 930.961 972.089 926C971.361 915.438 964.456 909.521 958.424 901C952.273 892.309 946.841 881.186 939 874z"/>
<path style="fill:#f49f99; stroke:none;" d="M987 874L988 875L987 874M386 875L387 876L386 875M938.333 875.667L938.667 876.333L938.333 875.667M1379.33 875.667L1379.67 876.333L1379.33 875.667M435 876L435 879L436 879L435 876M857 876L858 877L857 876M903 876L904 877L903 876M941 876L942 877L941 876M480 877L480 884L481 884L480 877M385 878L386 879L385 878M902 879L903 880L902 879M943 879L944 880L943 879M989 879L990 880L989 879M384 880L385 881L384 880M524.333 880.667L524.667 881.333L524.333 880.667M937.333 880.667L937.667 881.333L937.333 880.667M856 881L857 882L856 881M990 881L991 882L990 881M1380.33 881.667L1380.67 882.333L1380.33 881.667M383 882L384 883L383 882M901.333 882.667L901.667 883.333L901.333 882.667M945 882L946 883L945 882M436 883L436 886L437 886L436 883M991 883L992 884L991 883M382 885L383 886L382 885M525 885L525 888L526 888L525 885M947 885L948 886L947 885M1303 885L1304 886L1303 885M855 886L856 887L855 886M900 886L901 887L900 886M936.333 886.667L936.667 887.333L936.333 886.667M1305 886L1306 887L1305 886M381 887L382 888L381 887M1307 887L1308 888L1307 887M949 888L950 889L949 888M993 888L994 889L993 888M1092 888L1092 923C1092 928.814 1091.43 935.117 1095.42 939.895C1098.5 943.589 1103.29 945.521 1108 945.907C1120.77 946.954 1149.76 950.74 1158.61 939.956C1164.91 932.276 1162 917.356 1162 908C1156.08 915.819 1153.53 929.184 1143 932.677C1137.27 934.579 1132.44 929.206 1129.52 924.985C1122.71 915.156 1122.55 897.845 1115.06 889.603C1111.35 885.521 1097.2 888 1092 888M1309 888L1310 889L1309 888M437 889L437 892L438 892L437 889M899 889L900 890L899 889M1311 889L1312 890L1311 889M994 890L995 891L994 890M1313 890L1314 891L1313 890M481 891L481 898L482 898L481 891M526.333 891.667L526.667 892.333L526.333 891.667M854 891L855 892L854 891M935 891L935 894L936 894L935 891M951 891L952 892L951 891M1315 891L1316 892L1315 891M379 892L380 893L379 892M898 892L899 893L898 892M952 892L953 893L952 892M995 892L996 893L995 892M1320 893L1321 894L1320 893M378 894L379 895L378 894M1322 894L1323 895L1322 894M897.333 895.667L897.667 896.333L897.333 895.667M954 895L955 896L954 895M1324 895L1325 896L1324 895M438 896L438 899L439 899L438 896M853 896L854 897L853 896M1326 896L1327 897L1326 896M1380.33 896.667L1380.67 897.333L1380.33 896.667M377 897L378 898L377 897M527.333 897.667L527.667 898.333L527.333 897.667M934.333 897.667L934.667 898.333L934.333 897.667M997 897L998 898L997 897M1328 897L1329 898L1328 897M956 898L957 899L956 898M1331 898L1332 899L1331 898M376 899L377 900L376 899M896 899L897 900L896 899M1333 899L1334 900L1333 899M1379 899L1380 900L1379 899M1335 900L1336 901L1335 900M375 901L376 902L375 901M852 901L853 902L852 901M958 901L959 902L958 901M1338 901L1339 902L1338 901M528.333 902.667L528.667 903.333L528.333 902.667M895 902L896 903L895 902M933 902L933 905L934 905L933 902M959 902L960 903L959 902M1340 902L1341 903L1340 902M439 903L439 906L440 906L439 903z"/>
<path style="fill:#fcfdfe; stroke:none;" d="M997 903L997 907L998 907L997 903z"/>
<path style="fill:#f49f99; stroke:none;" d="M1343 903L1344 904L1343 903M1377 903L1378 904L1377 903M374 904L375 905L374 904M1346 904L1347 905L1346 904M1376 904L1377 905L1376 904M482 905L482 912L483 912L482 905M894.333 905.667L894.667 906.333L894.333 905.667M961 905L962 906L961 905M996 905L997 906L996 905M1349 905L1350 906L1349 905M373 906L374 907L373 906M851.333 906.667L851.667 907.333L851.333 906.667M1353 906L1354 907L1353 906M1373 906L1374 907L1373 906M997 907L998 908L997 907M1357.67 907.333L1358.33 907.667L1357.67 907.333M1370 907L1371 908L1370 907M372 908L373 909L372 908M529.333 908.667L529.667 909.333L529.333 908.667M932.333 908.667L932.667 909.333L932.333 908.667M963 908L964 909L963 908M893 909L894 910L893 909M964 909L965 910L964 909M440.333 910.667L440.667 911.333L440.333 910.667M371 911L372 912L371 911M850.333 911.667L850.667 912.333L850.333 911.667M892 912L893 913L892 912M966 912L967 913L966 912M370 913L371 914L370 913M530 913L530 916L531 916L530 913M931.333 914.667L931.667 915.333L931.333 914.667M369 915L370 916L369 915M891 915L892 916L891 915M441 916L441 919L442 919L441 916M849.333 916.667L849.667 917.333L849.333 916.667M970.667 916.333L971.333 916.667L970.667 916.333M368 918L369 919L368 918M890.333 918.667L890.667 919.333L890.333 918.667M483 919L483 926L484 926L483 919M531.333 919.667L531.667 920.333L531.333 919.667M930.333 919.667L930.667 920.333L930.333 919.667M367 920L368 921L367 920M666 921L667 922L666 921M848.333 921.667L848.667 922.333L848.333 921.667M366 922L367 923L366 922M889 922L890 923L889 922M972 922L972 930L973 930L972 922M442 923L442 926L443 926L442 923M532 924L532 927L533 927L532 924M665 924L666 925L665 924M365 925L366 926L365 925M888 925L889 926L888 925M929.333 925.667L929.667 926.333L929.333 925.667M364 927L365 928L364 927M664 927L665 928L664 927M848 927L849 928L848 927M887.333 928.667L887.667 929.333L887.333 928.667M363 929L364 930L363 929M849 929L850 930L849 929M443 930L443 933L444 933L443 930M533.333 930.667L533.667 931.333L533.333 930.667M663 930L664 931L663 930M928 930L928 933L929 933L928 930M362 932L363 933L362 932M482 932L483 933L482 932M845 932L846 933L845 932M886 932L887 933L886 932M662 933L663 934L662 933M843 933L844 934L843 933M361 934L362 935L361 934M840 934L841 935L840 934M837 935L838 936L837 935M880 935L880 940L881 940L880 935M360 936L361 937L360 936M480 936L481 937L480 936M534.333 936.667L534.667 937.333L534.333 936.667M661 936L662 937L661 936M834 936L835 937L834 936M927.333 936.667L927.667 937.333L927.333 936.667M829 938L830 939L829 938M973 938L973 943L974 943L973 938M481 939L482 940L481 939M826 939L827 940L826 939M483 940L484 941L483 940M663 940L664 941L663 940M823 940L824 941L823 940M359.667 941.333L360.333 941.667L359.667 941.333M486 941L487 942L486 941M535.333 941.667L535.667 942.333L535.333 941.667M664 941L665 942L664 941M820 941L821 942L820 941M926 941L926 944L927 944L926 941M363 942L364 943L363 942M489 942L490 943L489 942M818 942L819 943L818 942M366 943L367 944L366 943M492 943L493 944L492 943M667 943L668 944L667 943M815 943L816 944L815 943M369 944L370 945L369 944M495 944L496 945L495 944M812 944L813 945L812 944M971 944L972 945L971 944M372 945L373 946L372 945M498 945L499 946L498 945M670 945L671 946L670 945M809 945L810 946L809 945M376 946L377 947L376 946M501 946L502 947L501 946M807 946L808 947L807 946M968 946L969 947L968 946M379 947L380 948L379 947M503 947L504 948L503 947M536.333 947.667L536.667 948.333L536.333 947.667M674 947L674 948L686 948L674 947M804 947L805 948L804 947M879 947L879 952L880 952L879 947M925.333 947.667L925.667 948.333L925.333 947.667M943 947L943 948L967 948L943 947M382 948L383 949L382 948M506 948L507 949L506 948M688 948L689 949L688 948M939 948L940 949L939 948M385 949L386 950L385 949M509 949L510 950L509 949M937 949L938 950L937 949M388.667 950.333L389.333 950.667L388.667 950.333M512 950L513 951L512 950M692 950L693 951L692 950M800 950L801 951L800 950M392 951L393 952L392 951M515 951L516 952L515 951M799 951L800 952L799 951M934 951L935 952L934 951M394 952L395 953L394 952M517 952L518 953L517 952M537 952L537 955L538 955L537 952z"/>
<path style="fill:#18c8b0; stroke:none;" d="M562 952L563 953L562 952z"/>
<path style="fill:#f49f99; stroke:none;" d="M798 952L799 953L798 952M933 952L934 953L933 952M1169.33 952.667L1169.67 953.333L1169.33 952.667M519 953L520 954L519 953M924.333 953.667L924.667 954.333L924.333 953.667M932 953L933 954L932 953M931 954L932 955L931 954M796 955L797 956L796 955M698 956L699 957L698 956M523 957L524 958L523 957M536 957L537 958L536 957z"/>
<path style="fill:#18c8b0; stroke:none;" d="M563 957L564 958L563 957z"/>
<path style="fill:#f49f99; stroke:none;" d="M795 957L796 958L795 957M929 957L930 958L929 957M400 958L401 959L400 958M699 958L700 959L699 958M878 958L878 964L879 964L878 958M923 958L923 961L924 961L923 958M794 959L795 960L794 959M928 959L929 960L928 959M1166 959L1167 960L1166 959M401 960L402 961L401 960M535 960L536 961L535 960M700.333 960.667L700.667 961.333L700.333 960.667M525 961L526 962L525 961M402.333 963.667L402.667 964.333L402.333 963.667M534.333 963.667L534.667 964.333L534.333 963.667M793.333 963.667L793.667 964.333L793.333 963.667M927.333 963.667L927.667 964.333L927.333 963.667M1162 963L1163 964L1162 963M526 964L534 966L534 965L526 964M922 964L927 966L927 965L922 964z"/>
<path style="fill:#18c8b0; stroke:none;" d="M319 965L319 966L336 966L319 965z"/>
<path style="fill:#f49f99; stroke:none;" d="M403 965L403 966L447 966C435.537 961.19 415.48 965 403 965z"/>
<path style="fill:#18c8b0; stroke:none;" d="M557 965L557 966L565 966L557 965z"/>
<path style="fill:#f49f99; stroke:none;" d="M701 965L701 966L793 966L765 965L701 965z"/>
<path style="fill:#18c8b0; stroke:none;" d="M896 965L896 966L912 966L896 965z"/>
</svg>
