<svg xmlns="http://www.w3.org/2000/svg" width="453" height="68" viewBox="0 0 453 68">
  <g fill="none" fill-rule="evenodd" transform="translate(-1 -8.4)">
    <g transform="translate(0 7.25)">
      <g fill-rule="nonzero">
        <path fill="#FFF" d="M41.8263258,4.66876014 L49.4195181,19.7454527 L66.2546696,22.2732635 C71.2830139,23.0279089 73.2885368,29.1615984 69.666887,32.7091867 L57.5575181,44.5694527 L60.33609,61.2211065 C61.167698,66.2065796 55.9171711,69.9974082 51.4027888,67.6708617 L36.2765181,59.8744527 L21.1498662,67.6708617 C16.6354839,69.9974082 11.3849569,66.2065796 12.216565,61.2211065 L15.0015181,44.5194527 L2.94492638,32.7091867 C-0.676723371,29.1615984 1.32879946,23.0279089 6.35714382,22.2732635 L23.1895181,19.7464527 L30.7841582,4.66876014 C33.0602379,0.149683512 39.5502461,0.149683512 41.8263258,4.66876014 Z M36.305242,21.1227041 L32.7841875,28.1136347 C31.7571763,30.1527295 29.7416207,31.3752575 27.6038433,31.4946395 L20.398336,32.5757734 L26.0009632,38.063829 C27.7029692,39.7310296 28.2258677,42.1379692 27.5622439,44.2595629 L26.4155828,51.1344638 L33.3992513,47.5353381 C34.3143778,47.0637156 35.293436,46.8419667 36.2575047,46.8452309 L36.2951502,46.8452309 C37.2592189,46.8419667 38.2382771,47.0637156 39.1534036,47.5353381 L46.1370722,51.1344638 L44.8505895,43.4220262 C44.4859004,41.2357226 45.3328466,39.1280121 46.9036317,37.7762679 L52.2134774,32.5757734 L45.0087006,31.4947542 C42.8701582,31.3760427 40.8536376,30.1533845 39.8262965,28.1136347 L36.305242,21.1227041 Z"/>
        <path fill="#2BD9D9" d="M36.305242,21.1227041 L32.7841875,28.1136347 C31.2580441,31.1437392 27.5489869,32.3706925 24.4997766,30.8541116 C21.4505662,29.3375307 20.2158765,25.651714 21.74202,22.6216095 L30.7841582,4.66876014 C33.0602379,0.149683512 39.5502461,0.149683512 41.8263258,4.66876014 L50.8684641,22.6216095 C52.3946075,25.651714 51.1599178,29.3375307 48.1107074,30.8541116 C45.0614971,32.3706925 41.3524399,31.1437392 39.8262965,28.1136347 L36.305242,21.1227041 Z" style="mix-blend-mode:multiply"/>
        <path fill="#3DCC3D" d="M53.2200847,42.8356311 C51.6939412,45.8657356 47.9848841,47.0926889 44.9356737,45.576108 C41.8864634,44.0595271 40.6517737,40.3737104 42.1779171,37.3436059 L51.2200554,19.3907565 C53.4961351,14.8716799 59.9861433,14.8716799 62.262223,19.3907565 L71.3043612,37.3436059 C72.8305047,40.3737104 71.595815,44.0595271 68.5466046,45.576108 C65.4973942,47.0926889 61.7883371,45.8657356 60.2621937,42.8356311 L56.7411392,35.8447005 L53.2200847,42.8356311 Z" style="mix-blend-mode:multiply" transform="rotate(72 56.741 31.114)"/>
        <path fill="#FFD426" d="M45.4142666,66.6835565 C43.8881231,69.713661 40.179066,70.9406143 37.1298556,69.4240334 C34.0806452,67.9074525 32.8459555,64.2216358 34.372099,61.1915313 L43.4142373,43.2386819 C45.6903169,38.7196053 52.1803252,38.7196053 54.4564048,43.2386819 L63.4985431,61.1915313 C65.0246866,64.2216358 63.7899969,67.9074525 60.7407865,69.4240334 C57.6915761,70.9406143 53.982519,69.713661 52.4563755,66.6835565 L48.935321,59.6926259 L45.4142666,66.6835565 Z" style="mix-blend-mode:multiply" transform="rotate(144 48.935 54.962)"/>
        <path fill="#F7578C" d="M23.6173339,59.6926259 L20.0962794,66.6835565 C18.570136,69.713661 14.8610788,70.9406143 11.8118685,69.4240334 C8.76265808,67.9074525 7.5279684,64.2216358 9.05411186,61.1915313 L18.0962501,43.2386819 C20.3723298,38.7196053 26.862338,38.7196053 29.1384177,43.2386819 L38.180556,61.1915313 C39.7066994,64.2216358 38.4720097,67.9074525 35.4227994,69.4240334 C32.373589,70.9406143 28.6645318,69.713661 27.1383884,66.6835565 L23.6173339,59.6926259 Z" style="mix-blend-mode:multiply" transform="rotate(-144 23.617 54.962)"/>
        <path fill="#0AF" d="M15.8706742,35.8447005 L12.3496197,42.8356311 C10.8234763,45.8657356 7.11441915,47.0926889 4.06520878,45.576108 C1.0159984,44.0595271 -0.21869129,40.3737104 1.30745217,37.3436059 L10.3495904,19.3907565 C12.6256701,14.8716799 19.1156783,14.8716799 21.391758,19.3907565 L30.4338963,37.3436059 C31.9600397,40.3737104 30.72535,44.0595271 27.6761397,45.576108 C24.6269293,47.0926889 20.9178722,45.8657356 19.3917287,42.8356311 L15.8706742,35.8447005 Z" style="mix-blend-mode:multiply" transform="rotate(-72 15.87 31.114)"/>
      </g>
      <path fill="#3D474D" d="M0.835397819,26.9026564 L8.8702541,26.9026564 C9.33163158,26.9026564 9.70565192,27.2766768 9.70565192,27.7380542 L9.70565192,31.3655272 L9.70565192,31.3655272 C10.1549892,30.734411 10.6043205,30.1033043 11.1884599,29.4721881 C11.7725992,28.8410719 12.4690627,28.2775837 13.277871,27.7817067 C14.0866794,27.2858297 15.0078085,26.8801182 16.0412858,26.5645601 C17.0747632,26.249002 18.1980913,26.0912254 19.4113038,26.0912254 C21.7029276,26.0912254 23.7361514,26.5645554 25.5110365,27.5112297 C27.2859215,28.457904 28.622682,29.9455127 29.5213579,31.9741005 C30.6896367,29.8553533 32.1050301,28.345205 33.7675806,27.4436105 C35.4301312,26.5420159 37.4745883,26.0912254 39.9010135,26.0912254 C42.1027696,26.0912254 43.956261,26.4631275 45.4615432,27.2069431 C46.9668254,27.9507586 48.1575532,28.9650373 49.0337623,30.2498095 C49.9099714,31.5345818 50.5390351,33.0447301 50.9209724,34.7802996 C51.3029097,36.5158692 51.4938755,38.3753801 51.4938755,40.3588882 L51.4938755,58.9302166 C51.4938755,59.391594 51.1198551,59.7656144 50.6584777,59.7656144 L42.2192192,59.7656144 C41.7578417,59.7656144 41.3838214,59.391594 41.3838214,58.9302166 L41.3838214,40.6293652 L41.3838214,40.6293652 C41.3838214,39.0966544 41.0580562,37.7780921 40.4065162,36.6736388 C39.7549761,35.5691854 38.5979481,35.016967 36.9353976,35.016967 C35.7671188,35.016967 34.7898234,35.208553 34.0034819,35.5917307 C33.2171404,35.9749084 32.5880767,36.5045873 32.1162718,37.1807832 C31.6444669,37.8569791 31.3074685,38.6458625 31.1052664,39.5474571 C30.9030643,40.4490517 30.8019648,41.3957118 30.8019648,42.3874658 L30.8019648,58.9302166 C30.8019648,59.391594 30.4279444,59.7656144 29.966567,59.7656144 L21.5273085,59.7656144 C21.065931,59.7656144 20.6919107,59.391594 20.6919107,58.9302166 L20.6919107,42.3874658 L20.6919107,42.3874658 C20.6919107,41.8014294 20.6694441,41.0801645 20.6245103,40.2236497 C20.5795765,39.3671348 20.4223106,38.5557119 20.1527078,37.7893565 C19.883105,37.0230011 19.4450071,36.3693548 18.8384008,35.8283981 C18.2317945,35.2874413 17.3443653,35.016967 16.1760865,35.016967 C14.8730064,35.016967 13.817078,35.2536321 13.0082696,35.7269692 C12.1994612,36.2003064 11.5816308,36.8314131 11.1547597,37.6203083 C10.7278886,38.4092036 10.4470566,39.2995149 10.3122552,40.2912689 C10.1774538,41.283023 10.1100541,42.3198412 10.1100541,43.4017547 L10.1100541,58.9302166 C10.1100541,59.391594 9.73603374,59.7656144 9.27465627,59.7656144 L0.835397819,59.7656144 C0.374020344,59.7656144 3.50537565e-15,59.391594 0,58.9302166 L0,27.7380542 C1.48390314e-16,27.2766768 0.374020344,26.9026564 0.835397819,26.9026564 Z M87.068565,54.7758169 C86.6561688,55.2464565 86.3167665,55.6081465 86.050358,55.8608869 C84.7475513,57.0968528 83.2396665,58.1054065 81.5266831,58.8865641 C79.0553242,60.0135573 76.4941361,60.5770455 73.843042,60.5770455 C71.3267493,60.5770455 68.956527,60.171334 66.732304,59.3598989 C64.5080809,58.5484637 62.5759566,57.3876781 60.935873,55.8775072 C59.2957893,54.3673363 58.003962,52.5529044 57.0603522,50.4341572 C56.1167425,48.3154099 55.6449447,45.9487597 55.6449447,43.3341354 C55.6449447,40.7195111 56.1167425,38.3528609 57.0603522,36.2341136 C58.003962,34.1153664 59.2957893,32.3009345 60.935873,30.7907636 C62.5759566,29.2805927 64.5080809,28.1198071 66.732304,27.3083719 C68.956527,26.4969368 71.3267493,26.0912254 73.843042,26.0912254 C76.1795995,26.0912254 78.3026897,26.4969368 80.2123761,27.3083719 C82.1220625,28.1198071 83.739655,29.2805927 85.065202,30.7907636 C86.3907491,32.3009345 87.4129777,34.1153664 88.1319184,36.2341136 C88.8508592,38.3528609 89.2103242,40.7195111 89.2103242,43.3341354 L89.2103242,45.3983766 C89.2103242,46.0135466 88.7116304,46.5122404 88.0964605,46.5122404 L65.7549987,46.5122404 L65.7549987,46.5122404 C66.1594029,48.4506687 67.0355989,49.9946263 68.3836128,51.1441594 C69.7316268,52.2936925 71.3941524,52.8684504 73.3712395,52.8684504 C75.03379,52.8684504 76.4379502,52.4965482 77.583762,51.7527327 C78.2910571,51.2935848 78.9427008,50.7528501 79.5387002,50.1305217 C79.6859139,49.9768046 79.8694765,49.7659563 80.0893881,49.4979768 C80.3711897,49.1546017 80.8724297,49.0917946 81.2302325,49.3550355 L86.9352878,53.5523301 C87.3069637,53.8257281 87.3865885,54.3486708 87.1131584,54.7203231 C87.0990892,54.7394463 87.0842112,54.757961 87.068565,54.7758169 Z M194.11152,54.7758169 C193.699124,55.2464565 193.359722,55.6081465 193.093313,55.8608869 C191.790506,57.0968528 190.282622,58.1054065 188.569638,58.8865641 C186.098279,60.0135573 183.537091,60.5770455 180.885997,60.5770455 C178.369704,60.5770455 175.999482,60.171334 173.775259,59.3598989 C171.551036,58.5484637 169.618912,57.3876781 167.978828,55.8775072 C166.338744,54.3673363 165.046917,52.5529044 164.103307,50.4341572 C163.159698,48.3154099 162.6879,45.9487597 162.6879,43.3341354 C162.6879,40.7195111 163.159698,38.3528609 164.103307,36.2341136 C165.046917,34.1153664 166.338744,32.3009345 167.978828,30.7907636 C169.618912,29.2805927 171.551036,28.1198071 173.775259,27.3083719 C175.999482,26.4969368 178.369704,26.0912254 180.885997,26.0912254 C183.222555,26.0912254 185.345645,26.4969368 187.255331,27.3083719 C189.165018,28.1198071 190.78261,29.2805927 192.108157,30.7907636 C193.433704,32.3009345 194.455933,34.1153664 195.174874,36.2341136 C195.893814,38.3528609 196.253279,40.7195111 196.253279,43.3341354 L196.253279,45.3983766 C196.253279,46.0135466 195.754586,46.5122404 195.139416,46.5122404 L172.797954,46.5122404 L172.797954,46.5122404 C173.202358,48.4506687 174.078554,49.9946263 175.426568,51.1441594 C176.774582,52.2936925 178.437108,52.8684504 180.414195,52.8684504 C182.076745,52.8684504 183.480905,52.4965482 184.626717,51.7527327 C185.334012,51.2935848 185.985656,50.7528501 186.581655,50.1305217 C186.728869,49.9768046 186.912432,49.7659563 187.132343,49.4979768 C187.414145,49.1546017 187.915385,49.0917946 188.273188,49.3550355 L193.978243,53.5523301 C194.349919,53.8257281 194.429544,54.3486708 194.156114,54.7203231 C194.142044,54.7394463 194.127166,54.757961 194.11152,54.7758169 Z M79.1002701,39.6150764 C79.1452039,37.9020467 78.5835399,36.4369775 77.4152611,35.2198248 C76.2469824,34.0026721 74.7417227,33.3941049 72.899437,33.3941049 C71.776092,33.3941049 70.7875633,33.5744211 69.9338211,33.9350589 C69.0800789,34.2956968 68.3499157,34.7577571 67.7433094,35.3212537 C67.1367031,35.8847503 66.6649053,36.5383965 66.3279018,37.2822121 C65.9908983,38.0260276 65.7999325,38.8036413 65.7549987,39.6150764 L79.1002701,39.6150764 Z M102.771103,26.9026564 C103.232481,26.9026564 103.606501,27.2766768 103.606501,27.7380542 L103.606501,58.9302166 C103.606501,59.391594 103.232481,59.7656144 102.771103,59.7656144 L94.3318447,59.7656144 C93.8704673,59.7656144 93.4964469,59.391594 93.4964469,58.9302166 L93.4964469,27.7380542 C93.4964469,27.2766768 93.8704673,26.9026564 94.3318447,26.9026564 L102.771103,26.9026564 Z M98.5730273,12.0284091 C101.830289,12.0284091 104.470821,14.6800704 104.470821,17.9510603 C104.470821,21.2220503 101.830289,23.8737115 98.5730273,23.8737115 C95.315766,23.8737115 92.675234,21.2220503 92.675234,17.9510603 C92.675234,14.6800704 95.315766,12.0284091 98.5730273,12.0284091 Z M127.438223,36.5722099 C125.955407,34.723941 124.000816,33.7998204 121.574391,33.7998204 C120.720649,33.7998204 119.889386,34.0026762 119.080578,34.4083937 C118.27177,34.8141113 117.867371,35.5128366 117.867371,36.5045906 C117.867371,37.3160258 118.283003,37.9133232 119.114278,38.2965009 C119.945553,38.6796786 121.001482,39.0177715 122.282095,39.3107897 C123.562708,39.603808 124.933169,39.9193613 126.393517,40.2574593 C127.853866,40.5955573 129.224326,41.1252361 130.504939,41.8465118 C131.785552,42.5677875 132.841481,43.5482568 133.672756,44.7879494 C134.504031,46.0276419 134.919663,47.6842971 134.919663,49.7579646 C134.919663,51.8767119 134.459098,53.6235252 133.537955,54.9984569 C132.616812,56.3733886 131.437318,57.4778254 129.999436,58.3118004 C128.561555,59.1457754 126.943962,59.7318031 125.14661,60.069901 C123.349258,60.407999 121.5744,60.5770455 119.821982,60.5770455 C117.530358,60.5770455 115.216302,60.2502223 112.879745,59.5965663 C110.543187,58.9429102 108.56613,57.7821246 106.948513,56.1141746 L113.081946,49.2846299 C114.025556,50.4567028 115.070251,51.3470141 116.216063,51.9555904 C117.361874,52.5641668 118.698635,52.8684504 120.226384,52.8684504 C121.394663,52.8684504 122.450591,52.6994039 123.394201,52.361306 C124.337811,52.023208 124.809609,51.403371 124.809609,50.5017764 C124.809609,49.6452616 124.393977,49.0028851 123.562702,48.5746277 C122.731427,48.1463702 121.675498,47.7857378 120.394885,47.4927196 C119.114272,47.1997014 117.743811,46.884148 116.283463,46.54605 C114.823115,46.2079521 113.452654,45.7008127 112.172041,45.0246168 C110.891428,44.3484208 109.835499,43.390491 109.004224,42.1507984 C108.172949,40.9111059 107.757317,39.2544507 107.757317,37.1807832 C107.757317,35.2423548 108.150482,33.5744299 108.936824,32.1769583 C109.723165,30.7794867 110.756627,29.6299709 112.03724,28.7283763 C113.317854,27.8267817 114.789413,27.1618657 116.451964,26.7336083 C118.114514,26.3053509 119.799507,26.0912254 121.506991,26.0912254 C123.663813,26.0912254 125.84307,26.4067787 128.044826,27.0378949 C130.246582,27.6690111 132.111307,28.7959874 133.639056,30.4188577 L127.438223,36.5722099 Z M159.601248,35.016967 L151.539799,35.016967 L151.539799,35.016967 L151.539799,45.9712864 C151.539799,46.8728809 151.584732,47.6955736 151.674599,48.4393892 C151.764467,49.1832047 151.966666,49.8255812 152.281203,50.3665379 C152.595739,50.9074947 153.07877,51.3244759 153.73031,51.6174942 C154.38185,51.9105124 155.246813,52.0570193 156.325224,52.0570193 C156.86443,52.0570193 157.572126,52.0006705 158.448336,51.8879712 C158.718392,51.8532361 159.005255,51.7791577 159.308924,51.6657362 C159.741142,51.5042767 160.222401,51.7237934 160.383839,52.1560188 C160.418761,52.2495184 160.436646,52.3485193 160.436646,52.4483278 L160.436646,58.9340767 C160.436689,59.3084968 160.187576,59.6371916 159.827097,59.7384106 C158.594563,60.0844941 157.629473,60.2964198 156.931827,60.3741877 C155.718615,60.5094269 154.527887,60.5770455 153.359608,60.5770455 C151.652124,60.5770455 150.079465,60.3967292 148.641583,60.0360914 C147.203702,59.6754536 145.945574,59.1006957 144.867163,58.3118004 C143.788752,57.5229052 142.946256,56.4973567 142.339649,55.2351243 C141.733043,53.9728919 141.429745,52.4402041 141.429745,50.637015 L141.429745,35.016967 L135.794708,35.016967 C135.33333,35.016967 134.95931,34.6429467 134.95931,34.1815692 L134.95931,27.7380542 C134.95931,27.2766768 135.33333,26.9026564 135.794708,26.9026564 L141.429745,26.9026564 L141.429745,26.9026564 L141.429745,18.0008815 C141.429745,17.539504 141.803765,17.1654837 142.265142,17.1654837 L150.704401,17.1654837 C151.165778,17.1654837 151.539799,17.539504 151.539799,18.0008815 L151.539799,26.9026564 L151.539799,26.9026564 L159.601248,26.9026564 C160.062626,26.9026564 160.436646,27.2766768 160.436646,27.7380542 L160.436646,34.1815692 C160.436646,34.6429467 160.062626,35.016967 159.601248,35.016967 Z M186.02103,39.6150764 C186.065964,37.9020467 185.5043,36.4369775 184.336021,35.2198248 C183.167742,34.0026721 181.662483,33.3941049 179.820197,33.3941049 C178.696852,33.3941049 177.708323,33.5744211 176.854581,33.9350589 C176.000839,34.2956968 175.270676,34.7577571 174.664069,35.3212537 C174.057463,35.8847503 173.585665,36.5383965 173.248662,37.2822121 C172.911658,38.0260276 172.720692,38.8036413 172.675759,39.6150764 L186.02103,39.6150764 Z M201.117551,26.9026564 L209.55681,26.9026564 C210.018187,26.9026564 210.392207,27.2766768 210.392207,27.7380542 L210.392207,32.1769583 L210.392207,32.1769583 L210.527008,32.1769583 C211.605419,30.1483705 212.886013,28.6269525 214.368829,27.6126586 C215.851644,26.5983647 217.716369,26.0912254 219.963059,26.0912254 C220.547198,26.0912254 221.131329,26.1137649 221.715468,26.1588446 C221.965103,26.1781096 222.276284,26.2220735 222.649011,26.2907361 C223.045358,26.3637345 223.333077,26.7092975 223.333077,27.1123099 L223.333077,34.6088854 C223.333062,35.0702548 222.959048,35.4442686 222.497679,35.4442686 C222.429939,35.4442686 222.362451,35.4360294 222.2967,35.4197323 C221.848362,35.3086062 221.486117,35.2307005 221.209965,35.1860152 C220.513491,35.0733158 219.783328,35.016967 219.019454,35.016967 C217.0873,35.016967 215.559574,35.2874413 214.436229,35.8283981 C213.312884,36.3693548 212.447921,37.124429 211.841315,38.0936431 C211.234709,39.0628573 210.841544,40.2236429 210.661809,41.5760348 C210.482074,42.9284266 210.392207,44.4160354 210.392207,46.0389056 L210.392207,58.9302166 C210.392207,59.391594 210.018187,59.7656144 209.55681,59.7656144 L201.117551,59.7656144 C200.656174,59.7656144 200.282153,59.391594 200.282153,58.9302166 L200.282153,27.7380542 C200.282153,27.2766768 200.656174,26.9026564 201.117551,26.9026564 Z" transform="translate(86.637)"/>
    </g>
    <path fill="#3D474D" fill-rule="nonzero" d="M336.186915,67.2703333 C337.768121,67.2703333 339.338032,67.0898889 340.896649,66.729 C342.455266,66.3681111 343.844468,65.7816667 345.064255,64.9696667 C346.284043,64.1576667 347.277943,63.1088333 348.045957,61.8231667 C348.813972,60.5375 349.197979,58.9924444 349.197979,57.188 C349.197979,55.6993333 348.960798,54.4362222 348.486436,53.3986667 C348.012074,52.3611111 347.357004,51.4814444 346.521223,50.7596667 C345.685443,50.0378889 344.691543,49.4514444 343.539521,49.0003333 C342.3875,48.5492222 341.156418,48.1657778 339.846277,47.85 C339.168617,47.7146667 338.355426,47.5567778 337.406702,47.3763333 C336.457979,47.1958889 335.565727,46.9252222 334.729947,46.5643333 C333.894167,46.2034444 333.17133,45.7297778 332.561436,45.1433333 C331.951543,44.5568889 331.646596,43.79 331.646596,42.8426667 C331.646596,41.6697778 332.177429,40.7788333 333.239096,40.1698333 C334.300762,39.5608333 335.554433,39.2563333 337.000106,39.2563333 C338.536135,39.2563333 339.834982,39.5608333 340.896649,40.1698333 C341.958316,40.7788333 342.850567,41.5344444 343.573404,42.4366667 L343.573404,42.4366667 L348.317021,38.8503333 C347.142411,36.9556667 345.561206,35.6023333 343.573404,34.7903333 C341.585603,33.9783333 339.507447,33.5723333 337.338936,33.5723333 C335.848085,33.5723333 334.368528,33.7753333 332.900266,34.1813333 C331.432004,34.5873333 330.121862,35.1963333 328.96984,36.0083333 C327.817819,36.8203333 326.891684,37.8466111 326.191436,39.0871667 C325.491188,40.3277222 325.141064,41.7825556 325.141064,43.4516667 C325.141064,44.9854444 325.412128,46.2711111 325.954255,47.3086667 C326.496383,48.3462222 327.21922,49.2033333 328.122766,49.88 C329.026312,50.5566667 330.06539,51.098 331.24,51.504 C332.41461,51.91 333.656986,52.2708889 334.967128,52.5866667 C335.644787,52.722 336.424096,52.8911667 337.305053,53.0941667 C338.186011,53.2971667 339.021791,53.5678333 339.812394,53.9061667 C340.602996,54.2445 341.280656,54.7068889 341.845372,55.2933333 C342.410089,55.8797778 342.692447,56.6241111 342.692447,57.5263333 C342.692447,58.203 342.500443,58.8007222 342.116436,59.3195 C341.732429,59.8382778 341.235479,60.2668333 340.625585,60.6051667 C340.015691,60.9435 339.315443,61.1916111 338.52484,61.3495 C337.734238,61.5073889 336.954929,61.5863333 336.186915,61.5863333 C334.425,61.5863333 332.934149,61.2028889 331.714362,60.436 C330.494574,59.6691111 329.38773,58.7894444 328.39383,57.797 L328.39383,57.797 L323.785745,61.5863333 C325.36695,63.7516667 327.162748,65.2403333 329.173138,66.0523333 C331.183528,66.8643333 333.521454,67.2703333 336.186915,67.2703333 Z M365.162508,67.2703333 C367.64726,67.2703333 369.838359,66.7402778 371.735806,65.6801667 C373.633253,64.6200556 374.965983,63.2328889 375.733997,61.5186667 L375.733997,61.5186667 L375.869529,61.5186667 L375.869529,66.4583333 L381.968466,66.4583333 L381.968466,34.3843333 L375.869529,34.3843333 L375.869529,50.895 C375.869529,52.7445556 375.643643,54.346 375.19187,55.6993333 C374.740097,57.0526667 374.107614,58.1691667 373.294423,59.0488333 C372.481231,59.9285 371.532508,60.5713333 370.448253,60.9773333 C369.363997,61.3833333 368.189387,61.5863333 366.924423,61.5863333 C365.9757,61.5863333 365.060859,61.4397222 364.179902,61.1465 C363.298944,60.8532778 362.519636,60.3796111 361.841976,59.7255 C361.164317,59.0713889 360.622189,58.2142778 360.215593,57.1541667 C359.808997,56.0940556 359.6057,54.8196667 359.6057,53.331 L359.6057,53.331 L359.6057,34.3843333 L353.506763,34.3843333 L353.506763,55.0226667 C353.506763,57.1428889 353.823005,58.9811667 354.455487,60.5375 C355.087969,62.0938333 355.935044,63.3682222 356.99671,64.3606667 C358.058377,65.3531111 359.289458,66.0861667 360.689955,66.5598333 C362.090451,67.0335 363.581302,67.2703333 365.162508,67.2703333 Z M391.630761,27.347 C392.850548,27.347 393.90092,26.9071667 394.781878,26.0275 C395.662835,25.1478333 396.103314,24.099 396.103314,22.881 C396.103314,21.663 395.662835,20.6141667 394.781878,19.7345 C393.90092,18.8548333 392.850548,18.415 391.630761,18.415 C390.410974,18.415 389.360601,18.8548333 388.479644,19.7345 C387.598686,20.6141667 387.158208,21.663 387.158208,22.881 C387.158208,24.099 387.598686,25.1478333 388.479644,26.0275 C389.360601,26.9071667 390.410974,27.347 391.630761,27.347 Z M394.680229,66.4583333 L394.680229,34.3843333 L388.581293,34.3843333 L388.581293,66.4583333 L394.680229,66.4583333 Z M413.219865,67.2703333 C413.852347,67.2703333 414.744599,67.1913889 415.89662,67.0335 C417.048641,66.8756111 417.98607,66.5936667 418.708907,66.1876667 L418.708907,66.1876667 L418.708907,60.639 C418.076425,60.9998889 417.376177,61.248 416.608162,61.3833333 C415.840148,61.5186667 415.094723,61.5863333 414.371886,61.5863333 C413.197276,61.5863333 412.305024,61.3720556 411.695131,60.9435 C411.085237,60.5149444 410.633464,59.9510556 410.339811,59.2518333 C410.046159,58.5526111 409.876744,57.7631667 409.831567,56.8835 C409.786389,56.0038333 409.763801,55.1128889 409.763801,54.2106667 L409.763801,54.2106667 L409.763801,39.6623333 L418.505609,39.6623333 L418.505609,34.3843333 L409.763801,34.3843333 L409.763801,25.3846667 L403.664865,25.3846667 L403.664865,34.3843333 L396.617205,34.3843333 L396.617205,39.6623333 L403.664865,39.6623333 L403.664865,56.376 C403.664865,57.6842222 403.721336,58.9811667 403.834279,60.2668333 C403.947223,61.5525 404.308641,62.7141111 404.918535,63.7516667 C405.528428,64.7892222 406.477152,65.6350556 407.764705,66.2891667 C409.052258,66.9432778 410.870645,67.2703333 413.219865,67.2703333 Z M437.926202,67.2703333 C444.025139,67.2703333 448.768756,65.0824444 452.157054,60.7066667 L452.157054,60.7066667 L447.548968,57.188 C446.374358,58.6315556 445.086805,59.7931667 443.686309,60.6728333 C442.285812,61.5525 440.636841,61.9923333 438.739394,61.9923333 C437.338897,61.9923333 435.983578,61.7667778 434.673436,61.3156667 C433.363295,60.8645556 432.211273,60.233 431.217373,59.421 C430.223472,58.609 429.421575,57.6278333 428.811681,56.4775 C428.201788,55.3271667 427.896841,54.0527778 427.896841,52.6543333 L427.896841,52.6543333 L453.647905,52.6543333 L453.647905,50.489 C453.647905,48.4138889 453.365546,46.3726111 452.80083,44.3651667 C452.236114,42.3577222 451.321273,40.5532778 450.056309,38.9518333 C448.791344,37.3503889 447.176256,36.0534444 445.211043,35.061 C443.24583,34.0685556 440.840139,33.5723333 437.993968,33.5723333 C435.599571,33.5723333 433.385883,34.0008889 431.352905,34.858 C429.319926,35.7151111 427.569305,36.8992778 426.101043,38.4105 C424.63278,39.9217222 423.480759,41.7036111 422.644979,43.7561667 C421.809199,45.8087222 421.391309,48.0304444 421.391309,50.4213333 C421.391309,52.8122222 421.775316,55.0339444 422.54333,57.0865 C423.311344,59.1390556 424.406894,60.9209444 425.829979,62.4321667 C427.253064,63.9433889 428.99239,65.1275556 431.047958,65.9846667 C433.103525,66.8417778 435.396273,67.2703333 437.926202,67.2703333 Z M447.142373,47.7823333 L427.896841,47.7823333 C427.896841,46.6996667 428.134022,45.6057222 428.608383,44.5005 C429.082745,43.3952778 429.74911,42.3915556 430.607479,41.4893333 C431.465848,40.5871111 432.51622,39.8540556 433.758596,39.2901667 C435.000972,38.7262778 436.367585,38.4443333 437.858436,38.4443333 C439.394465,38.4443333 440.73849,38.6811667 441.890511,39.1548333 C443.042532,39.6285 444.00255,40.2826111 444.770564,41.1171667 C445.538578,41.9517222 446.114589,42.9328889 446.498596,44.0606667 C446.882603,45.1884444 447.097195,46.429 447.142373,47.7823333 L447.142373,47.7823333 Z"/>
  </g>
</svg>
